<?xml version="1.0" encoding="utf-8"?>
<!-- Generator: Adobe Illustrator 17.0.0, SVG Export Plug-In . SVG Version: 6.00 Build 0)  -->
<!DOCTYPE svg PUBLIC "-//W3C//DTD SVG 1.1//EN" "http://www.w3.org/Graphics/SVG/1.1/DTD/svg11.dtd">
<svg version="1.1" xmlns="http://www.w3.org/2000/svg" xmlns:xlink="http://www.w3.org/1999/xlink" x="0px" y="0px" width="792px"
	 height="310px" viewBox="0 0 792 310" style="enable-background:new 0 0 792 310;" xml:space="preserve">
<style type="text/css">
	.st0{fill:#FFFFFF;}
	.st1{fill:#FDDB32;}
	.st2{fill:#FDDA21;}
	.st3{fill:#FDD910;}
	.st4{fill:#FCDA32;}
	.st5{fill:#FDDA1A;}
	.st6{fill:#FCDB32;}
	.st7{fill:#FAD933;}
	.st8{fill:#FDDA1E;}
	.st9{fill:#F8D832;}
	.st10{fill:#F9D932;}
	.st11{fill:#FBD932;}
	.st12{fill:#F3D435;}
	.st13{fill:#FBDA33;}
	.st14{fill:#BEA524;}
	.st15{fill:#020202;}
	.st16{fill:#010000;}
	.st17{fill:#FDDA1D;}
	.st18{fill:#FBDA32;}
	.st19{fill:#D4B929;}
	.st20{fill:#F6D734;}
	.st21{fill:#FBDA34;}
	.st22{fill:#FDDA20;}
	.st23{fill:#FDD91D;}
	.st24{fill:#FDD918;}
	.st25{fill:#F8D732;}
	.st26{fill:#010100;}
	.st27{fill:#FDDA17;}
	.st28{fill:#010101;}
	.st29{fill:#FDD91E;}
	.st30{fill:#FDDC2E;}
	.st31{fill:#FDDD30;}
	.st32{fill:#090909;}
	.st33{fill:#0B0B0B;}
	.st34{fill:#141414;}
	.st35{fill:#323232;}
	.st36{fill:#151515;}
	.st37{fill:#212121;}
	.st38{fill:#1C1C1C;}
	.st39{fill:#1F1F1F;}
	.st40{fill:#191919;}
	.st41{fill:#040404;}
	.st42{fill:#0C0C0C;}
	.st43{fill:#1D1D1D;}
	.st44{fill:#1B1B1B;}
	.st45{fill:#0F0F0F;}
	.st46{fill:#020201;}
	.st47{fill:#F8D831;}
	.st48{fill:#FDDA1F;}
</style>
<g id="BG">
</g>
<g id="LOGO">
	<g>
		<path class="st0" d="M268.911,292.893c0,0-13,1.5-18-2s-26.5-11.667-31.333-13.167c-4.833-1.5-20-13.667-21.5-18.5
			c-1.5-4.833-2.833-8-8-6.167c-5.167,1.833-18.667,5.5-20.667-4.333s-1.167-20.833,1.333-22.5s-8-24.5-9.5-26.167
			c-1.5-1.667-2.333-21,0-25c2.333-4-6.333-13.46-6-16.98c0.333-3.52,5.167-9.02,12.333-19.186
			c7.167-10.167,34.167-24.95,36.167-28.667s5.167-6.667,11-7.167c5.833-0.5,24.75-8.971,28.5-5.667
			c4.162,3.667,8.333,4.667,18.5,4.5c10.345-0.17,19.646-9.756,21.157-7.878s11.511,10.695,12.094,11.12
			c0.583,0.425,6.078,2.048,8.596,5.07s7.656,6.169,12.653,10.855c4.997,4.686,10.167,18.713,10.167,20.19s0,11.523,5.833,14.75
			c5.833,3.227,17.011,14.091,20,20.227s5.516,13.295,3.592,23.731s-4.925,24.822-8.758,31.962c-3.833,7.14-10,19.282-13,21.128
			s-16.5,13.459-19.333,15.902c-2.833,2.444-14.833,9.444-16.167,12.277C297.244,284.06,274.577,294.893,268.911,292.893z"/>
		<path class="st1" d="M762.555,151.26c7.64-0.22,8.09,0.02,5.57,7.56c-7.9,23.63-11.56,48.05-14.22,72.68
			c-0.07,0.63-0.44,1.23-0.67,1.84c-2.03,1.1-1.32,2.41-0.29,3.74c-0.25,4.09-0.53,8.17-0.73,12.25c-0.1,2.13-1.12,3.33-3.22,3.63
			c-1.6-1.25-3.22-1.22-4.84-0.03c-2.66-0.48-5.04-1.46-6.59-3.86c6.04,2.09,9.59,0.08,9.76-6.21c0.22-7.85,1.23-15.59,2.27-23.32
			c2.82-20.92,5.54-41.88,12.62-61.93c0.74-2.11,1.03-4.17,0.33-6.33C762.555,151.27,762.555,151.27,762.555,151.26z"/>
		<path class="st1" d="M760.335,46.44c7.13-0.78,7.13-0.78,6.04,6.42c-3.73,24.6-7.44,49.21-11.21,73.81
			c-0.48,3.15,0.25,7.83-5.68,5.52c-0.25-0.1-0.69,0.04-0.94,0.21c-7.44,4.99-3.77-1.77-4.32-4.07c4.17,1.87,4.9-1.06,5.43-4
			c4.35-24.44,7.77-49.01,11.29-73.57C761.155,49.27,761.345,47.77,760.335,46.44z"/>
		<path class="st1" d="M762.545,151.28c0.7,2.16,0.41,4.22-0.33,6.33c-7.08,20.05-9.8,41.01-12.62,61.93
			c-1.04,7.73-2.05,15.47-2.27,23.32c-0.17,6.29-3.72,8.3-9.76,6.21c7.79-0.15,7.85-0.49,8.39-8.16
			c1.54-21.87,5.08-43.46,9.44-64.94C757.115,167.5,760.315,159.54,762.545,151.28z"/>
		<path d="M760.185,146.51c3.9-0.98,2.38,2.71,2.36,4.76v0.01c-2.23,8.26-5.43,16.22-7.15,24.69c-4.36,21.48-7.9,43.07-9.44,64.94
			c-0.54,7.67-0.6,8.01-8.39,8.16c-4.54-1.88-8.3-4.42-8.67-9.94c0.01-1.99,0.02-3.98,0.03-5.98c0.06-0.33,0.11-0.66,0.16-1
			c1.68-2.87,1.94-6.05,1.98-9.27c0.19-0.12,0.22-0.26,0.09-0.43c2.02-2.02,1.92-4.87,2.85-7.32c0.61-0.91,1.14-1.85,0.97-3.02
			c5.8-18.59,8.57-37.91,13.64-56.71C750.575,148.12,755.425,147.71,760.185,146.51z"/>
		<path class="st1" d="M760.335,46.44c1.01,1.33,0.82,2.83,0.61,4.32c-3.52,24.56-6.94,49.13-11.29,73.57
			c-0.53,2.94-1.26,5.87-5.43,4c2.67,0.43,3.67-0.66,4.08-3.4c3.52-23.9,7.2-47.78,10.84-71.66
			C759.495,50.99,759.935,48.71,760.335,46.44z"/>
		<path d="M759.255,41.75c2.55,0.32,0.48,3.12,1.08,4.69c-0.4,2.27-0.84,4.55-1.19,6.83c-3.64,23.88-7.32,47.76-10.84,71.66
			c-0.41,2.74-1.41,3.83-4.08,3.4c-1.91-1.34-2.88,0.47-4.15,1.25c-2.17,1.11-3.02,0.36-2.9-1.98c0.11-1.95,1.49-3.83,0.45-6.13
			c-4.74,5.33-7.89,12.48-16.56,11.69c-3.7-1.47-7.02-3.36-8.31-7.49c-1.59-5.64-1.75-11.27-1.19-17.17
			c0.92-9.66,3.85-18.72,6.79-27.83c2.71-6.04,5.18-12.2,8.19-18.09c4.76-9.29,11.22-16.56,22.86-16.36
			c1.78,0.03,1.96-1.22,2.68-2.33C753.785,41.3,756.915,41.47,759.255,41.75z M742.225,83.03c1.68-6.32,3.36-12.64,5.26-19.76
			c-15.42,13.31-24.43,38.73-19.14,53c2.38-1.76,3.96-3.97,4.89-6.68c1.1-0.89,1.75-2.01,1.77-3.46c3.48-7.35,5.46-15.19,7.21-23.07
			c0.01-0.01,0.01-0.01,0.01-0.02V83.03z"/>
		<path class="st2" d="M753.235,233.34c-0.1,1.25-0.19,2.49-0.29,3.74C752.675,235.81,751.845,234.49,753.235,233.34z"/>
		<path class="st2" d="M753.235,233.34c-1.39,1.15-0.56,2.47-0.29,3.74C751.915,235.75,751.205,234.44,753.235,233.34z"/>
		<path class="st3" d="M748.995,252.96c-1.61-0.01-3.22-0.02-4.84-0.03C745.775,252.45,747.385,252.4,748.995,252.96z"/>
		<path class="st3" d="M748.995,252.96c-1.61-0.56-3.22-0.51-4.84-0.03C745.775,251.74,747.395,251.71,748.995,252.96z"/>
		<path class="st4" d="M747.485,63.27c-1.9,7.12-3.58,13.44-5.26,19.76v0.01c0,0.01,0,0.01-0.01,0.02
			c-4.62,6.29-7.36,13.33-8.38,21.06c-1.07,1.73-0.66,3.62-0.6,5.47c-0.93,2.71-2.51,4.92-4.89,6.68
			C723.055,102,732.065,76.58,747.485,63.27z"/>
		<path class="st5" d="M736.985,178.95c2.37,0.01,2.65,1.25,1.96,3.13c-1.14-3.58-3.67-2.55-6.02-2.05c-0.1-0.43-0.2-0.85-0.24-1.28
			v-0.01C734.125,178.82,735.555,178.95,736.985,178.95z"/>
		<path class="st6" d="M738.945,182.08c-1.68,9.27-3.37,18.54-5.05,27.8c-1.06,1.21-0.76,2.74-0.98,4.15
			c-0.88,1.92-1.45,3.92-1.66,5.99c-0.3,0.73-0.62,1.46-0.96,2.18c-0.15,0.46-0.27,0.92-0.34,1.4c-0.14,2.97-0.94,5.8-1.8,8.61
			c-0.13,0.5-0.23,1.01-0.27,1.52c-0.11,0.76-0.11,1.51-0.02,2.24c-0.09,0.71-0.15,1.42-0.34,2.11c-0.8,3.69-1.7,7.36-2.36,11.08
			c-0.45,2.54-1.51,3.48-4.06,2.45c-0.86-0.35-2.09-0.72-2.82-0.37c-5.04,2.34-4.8-0.52-4.08-3.97c4.42,2.87,5.35-0.85,5.96-3.6
			c4.62-20.63,9.3-41.25,12.96-62.09c0.03-0.5-0.07-0.98-0.18-1.46C735.145,180.1,737.455,179.72,738.945,182.08z"/>
		<path class="st7" d="M736.685,124.5c-1.24,1.41-2.02,3.23-3.46,4.43c-3.49,2.93-6.67,6.96-12.16,4.23
			c8.67,0.79,11.82-6.36,16.56-11.69c1.04,2.3-0.34,4.18-0.45,6.13c-0.12,2.34,0.73,3.09,2.9,1.98c-1.89,2.07-3.23,1.16-3.82-0.99
			C735.855,127.15,735.835,125.67,736.685,124.5z M736.715,124.47c0.35-0.41,0.74-0.78,1.2-1.09
			C737.395,123.7,737.005,124.07,736.715,124.47z"/>
		<path class="st7" d="M736.255,128.59c0.59,2.15,1.93,3.06,3.82,0.99c-1.1,4.19-4.26,6.15-8.04,7.46c-1.61-1.37-3.24-1.3-4.89-0.09
			c-2.62-0.31-4.68-1.51-6.08-3.79c5.49,2.73,8.67-1.3,12.16-4.23c1.44-1.2,2.22-3.02,3.46-4.43
			C735.835,125.67,735.855,127.15,736.255,128.59z"/>
		<path class="st7" d="M737.915,123.38c-0.46,0.31-0.85,0.68-1.2,1.09C737.005,124.07,737.395,123.7,737.915,123.38z"/>
		<path class="st5" d="M732.925,180.03c2.35-0.5,4.88-1.53,6.02,2.05c-1.49-2.36-3.8-1.98-6-1.96
			C732.935,180.09,732.935,180.06,732.925,180.03z"/>
		<path class="st6" d="M732.945,180.12c0.11,0.48,0.21,0.96,0.18,1.46c-3.66,20.84-8.34,41.46-12.96,62.09
			c-0.61,2.75-1.54,6.47-5.96,3.6c4,1.43,4.24-1.53,4.78-4.1c4.18-19.9,8.35-39.79,12.54-59.68c0.23-1.14,0.58-2.24,0.87-3.36
			C732.575,180.13,732.755,180.13,732.945,180.12z"/>
		<path class="st5" d="M732.945,180.12c-0.19,0.01-0.37,0.01-0.55,0.01c0.17-0.03,0.35-0.06,0.53-0.1
			C732.935,180.06,732.935,180.09,732.945,180.12z"/>
		<path class="st5" d="M732.925,180.03c-0.18,0.04-0.36,0.07-0.53,0.1c-0.18-0.52-0.34-1.04,0.29-1.39v0.01
			C732.725,179.18,732.825,179.6,732.925,180.03z"/>
		<path d="M731.485,174.79c2.66,0.29,1.17,2.5,1.2,3.95c-0.63,0.35-0.47,0.87-0.29,1.39c-0.29,1.12-0.64,2.22-0.87,3.36
			c-4.19,19.89-8.36,39.78-12.54,59.68c-0.54,2.57-0.78,5.53-4.78,4.1c-1.54-1.81-2.75-0.16-4.06,0.39
			c-6.98-0.33,0.08-5.31-2.73-7.21c-4.49,4.27-9.1,9.03-16.47,7.57c-7.69-2.82-10.4-8.71-10.11-16.43
			c0.51-13.69,6.92-25.04,14.29-36.02c0.98-1.47,2.74-2.46,2.84-4.49c0.97-1.14,2.73-1.45,3.23-3.08
			c5.73-4.76,11.53-9.39,19.62-8.97c1.42,0.07,2.03-0.74,2.53-1.88C725.095,173.16,728.585,174.48,731.485,174.79z M715.205,202.23
			c1.8-3.75,3.08-7.65,3.94-12.67c-15.64,9.72-22.71,23.7-25.88,40.09c-0.4,2.04-1.93,5.07,0.56,6.32c2.09,1.04,4.28-1.04,6.1-2.49
			c0.12-0.1,0.16-0.29,0.23-0.44c1.84-0.7,2.82-2.33,3.78-3.81C709.295,220.92,712.475,211.66,715.205,202.23z"/>
		<path class="st6" d="M731.155,222.45c0.13,0.17,0.1,0.31-0.09,0.43c-1.52,2.91-2.13,6.01-1.98,9.27c-0.05,0.34-0.1,0.67-0.16,1
			c-0.74,0.83-0.93,1.82-1.06,2.82c-0.09-0.73-0.09-1.48,0.02-2.24c0.04-0.51,0.14-1.02,0.27-1.52c0.86-2.81,1.66-5.64,1.8-8.61
			c0.07-0.48,0.19-0.94,0.34-1.4c0.34-0.72,0.66-1.45,0.96-2.18C731.165,220.82,731.125,221.63,731.155,222.45z"/>
		<path class="st8" d="M732.035,137.04c-1.64,0.47-3.27,0.38-4.89-0.09C728.785,136.46,730.415,136.32,732.035,137.04z"/>
		<path class="st8" d="M732.035,137.04c-1.62-0.72-3.25-0.58-4.89-0.09C728.795,135.74,730.425,135.67,732.035,137.04z"/>
		<path class="st6" d="M717.815,75.28c0.19,1.79,0.36,3.59,0.54,5.39c-0.91,0.5-1.54,1.28-1.92,2.2
			c-4.73,11.45-6.95,23.38-6.44,35.74c0.1,2.47,0.08,5.41,2.76,7.06c-0.77,3.73-1.37,7.5-2.35,11.18c-1.44,5.36-2.57,5.76-7.2,3.07
			c-1.57-0.92-3.1-1.9-4.65-2.85c3.25,1.52,5-0.1,6.17-2.94c0.96-2.32,1.45-4.74,1.86-7.22c1.5-9.02,1.89-18.16,2.8-27.25
			c0.89-8.92,3.4-17.65,3.18-26.69c-0.06-2.48,0.15-5.08-2.33-6.73C715.245,67.18,717.325,70.56,717.815,75.28z"/>
		<path class="st6" d="M719.145,189.56c-0.86,5.02-2.14,8.92-3.94,12.67c-8.13,8.75-13.27,18.96-15.05,30.81
			c-0.07,0.15-0.11,0.34-0.23,0.44c-1.82,1.45-4.01,3.53-6.1,2.49c-2.49-1.25-0.96-4.28-0.56-6.32
			C696.435,213.26,703.505,199.28,719.145,189.56z"/>
		<path class="st6" d="M716.435,82.87c0.38-0.92,1.01-1.7,1.92-2.2c-2.94,9.11-5.87,18.17-6.79,27.83
			c-0.56,5.9-0.4,11.53,1.19,17.17c-2.68-1.65-2.66-4.59-2.76-7.06C709.485,106.25,711.705,94.32,716.435,82.87z"/>
		<path class="st6" d="M712.565,72.97c0.22,9.04-2.29,17.77-3.18,26.69c-0.91,9.09-1.3,18.23-2.8,27.25
			c-0.41,2.48-0.9,4.9-1.86,7.22c-1.17,2.84-2.92,4.46-6.17,2.94c4.03,0.97,4.94-2.01,5.41-4.75c1.13-6.54,2.18-13.1,2.75-19.7
			c0.92-10.76,2.11-21.46,3.97-32.09c0.83-4.75,1.12-9.57-0.45-14.29C712.715,67.89,712.505,70.49,712.565,72.97z"/>
		<path d="M710.235,66.24c1.57,4.72,1.28,9.54,0.45,14.29c-1.86,10.63-3.05,21.33-3.97,32.09c-0.57,6.6-1.62,13.16-2.75,19.7
			c-0.47,2.74-1.38,5.72-5.41,4.75c-1.43-1.33-3-2.42-4.83-3.19c-2.87-1.22-4.23-3.39-3.53-6.59c1.14-1.75,1.01-3.72,0.96-5.68
			c1.19-1.95,0.86-4.17,1.07-6.28c1.15-1.39,0.78-3.06,0.88-4.64v-0.03c0.69-3.87,1.38-7.75,2.07-11.62
			c0.93-1.48,0.86-3.13,0.77-4.78c1.8-4.85,2.07-9.97,3.17-15.66c-3.78,1.7-5.87,4.18-7.57,7.05c-2.84,4.78-4.28,10.07-5.33,15.47
			c-2.08,10.77-3.99,21.57-6.14,32.32c-1.58,7.9-4.46,10.56-11.6,11.3c-0.01,0-0.01,0-0.02,0c-3.24-0.41-4.97-2.46-5.87-5.4
			c-0.7-4.44,0.02-8.66,2-12.68c1.46-9.18,4.32-18.13,4.4-27.53c2.49-5.78,3.31-11.94,4.11-18.1c3.48-13.3,5.14-26.96,7.97-40.38
			c1.1-5.19,2.24-10.36,3.27-15.56c0.63-3.24,2.16-5.22,5.72-5.67c3.59-0.46,5.66,0.97,6.88,4.14c0.24,4.66-0.49,9.18-1.57,13.72
			c-2.75,11.55-5.3,23.15-7.93,34.73c0.3,0.18,0.61,0.37,0.91,0.55c2.95-3.18,5.9-6.36,8.85-9.54
			C702.375,60.72,706.735,61.73,710.235,66.24z"/>
		<path d="M710.145,247.66c-0.25,0.35-0.49,0.59-0.73,0.74C709.665,248.17,709.905,247.92,710.145,247.66z"/>
		<path class="st9" d="M710.145,247.66c-0.24,0.26-0.48,0.51-0.73,0.74c0,0.01,0,0.01-0.01,0.01c-0.94,0.59-1.82-0.11-2.43-1
			c-1.29-1.86-0.79-3.67,0.77-5.64c-2.33,2.46-4.69,4.51-7.43,6.02c-3.08,1.7-6.2,2.27-9.37,0.23c7.37,1.46,11.98-3.3,16.47-7.57
			C710.225,242.35,703.165,247.33,710.145,247.66z"/>
		<path class="st9" d="M706.975,247.41c0.61,0.89,1.49,1.59,2.43,1c-5.92,5.79-12.06,5.66-18.46-0.39c3.17,2.04,6.29,1.47,9.37-0.23
			c2.74-1.51,5.1-3.56,7.43-6.02C706.185,243.74,705.685,245.55,706.975,247.41z"/>
		<path class="st2" d="M702.985,28.17c0.47,1.98,0.42,3.96,0.07,5.95C702.235,32.15,702.345,30.16,702.985,28.17z"/>
		<path class="st2" d="M702.985,28.17c-0.64,1.99-0.75,3.98,0.07,5.95C701.555,32.16,701.615,30.17,702.985,28.17z"/>
		<path class="st4" d="M702.985,28.17c-1.37,2-1.43,3.99,0.07,5.95c-0.66,8.9-3.75,17.3-5.38,26c-0.18,0.97-0.32,1.93-0.48,2.9
			c-3.91,0.08-4.69,4.23-7.73,6.01c0.18-2.07,0.72-3.79,1.14-5.53c2.58-10.61,5.2-21.21,7.2-31.94c0.51-2.7,1.43-5.55-0.87-8
			C700.115,23.57,702.745,24.3,702.985,28.17z"/>
		<path class="st1" d="M695.835,179.5c6.54-1.22,6.5-1.23,5.17,5.12c-0.22,1.07,0.11,2.25,0.19,3.38c-1.65,0.43-3.2,0.96-3.23,3.08
			c-1.33,0.07-2.66,0.15-3.98,0.21c-4.61,0.22-7.16,2.22-8.68,7c-3.63,11.37-7.98,22.51-12.25,33.67
			c-2.02,5.32-2.8,10.92-4.45,16.31c-0.7,2.3-0.75,5.61-3.44,6.19c-2.85,0.61-3.76-2.7-5.36-4.48c3.14-1.81,3.26-5.23,4.16-8.14
			c1.47-4.74,2.15-9.68,3.95-14.37c4.05-10.52,8.21-21.01,11.74-31.71c1.55-4.7,3.94-7.08,9.01-7.62c6.35-0.69,7.08-2.14,6.21-8.6
			v-0.01C695.195,179.53,695.525,179.56,695.835,179.5z"/>
		<path class="st1" d="M701.195,188c-0.5,1.63-2.26,1.94-3.23,3.08C697.995,188.96,699.545,188.43,701.195,188z"/>
		<path class="st6" d="M699.115,78.6c-1.1,5.69-1.37,10.81-3.17,15.66c-0.52,0.72-0.93,1.47-1.22,2.27
			c0.09-0.84,0.15-1.69,0.29-2.53c0.71-3.72,1.71-7.41,1.99-11.97c-3.94,2.65-5.61,6.08-6.88,9.75c-3.47,10.1-4.57,20.72-6.64,31.13
			c-0.85,4.23-1.38,8.53-2.56,12.68c-1.99,7.02-6.05,9.9-12.45,9.15c7.14-0.74,10.02-3.4,11.6-11.3
			c2.15-10.75,4.06-21.55,6.14-32.32c1.05-5.4,2.49-10.69,5.33-15.47C693.245,82.78,695.335,80.3,699.115,78.6z"/>
		<path class="st4" d="M696.935,23.56c2.3,2.45,1.38,5.3,0.87,8c-2,10.73-4.62,21.33-7.2,31.94c-0.42,1.74-0.96,3.46-1.14,5.53
			c3.04-1.78,3.82-5.93,7.73-6.01c-2.95,3.18-5.9,6.36-8.85,9.54c-0.3-0.18-0.61-0.37-0.91-0.55c2.63-11.58,5.18-23.18,7.93-34.73
			C696.445,32.74,697.175,28.22,696.935,23.56z"/>
		<path class="st6" d="M697.005,82.03c-0.28,4.56-1.28,8.25-1.99,11.97c-0.14,0.84-0.2,1.69-0.29,2.53c-0.3,0.8-0.48,1.64-0.53,2.53
			c-0.01,0.05-0.03,0.1-0.05,0.15c-0.13,0.46-0.25,0.92-0.36,1.38c-0.01,0.02-0.02,0.04-0.02,0.06c-0.82,2.65-1.85,5.28-1.31,8.07
			c-0.04,0.29-0.09,0.59-0.14,0.88c-0.13,0.48-0.24,0.96-0.3,1.45c-0.01,0.08-0.02,0.15-0.03,0.23c-0.57,0.42-0.9,1-0.7,1.97
			c-0.44,2.22-1.09,4.43-0.72,6.66c-0.07,0.34-0.16,0.67-0.28,1c-0.12,0.46-0.22,0.93-0.27,1.41v0.01
			c-1.01,0.96-1.01,2.36-0.88,3.83c-0.77,3.7-1.6,7.39-2.32,11.1c-0.97,5.01-3.22,9.15-7.7,11.85c-4.4,0.61-7.93-0.93-10.66-4.37
			c0.01,0,0.01,0,0.02,0c6.4,0.75,10.46-2.13,12.45-9.15c1.18-4.15,1.71-8.45,2.56-12.68c2.07-10.41,3.17-21.03,6.64-31.13
			C691.395,88.11,693.065,84.68,697.005,82.03z"/>
		<path d="M692.195,174.48c5.86-0.95,3.03,2.71,2.68,5.05v0.01c-0.26,0.57-0.84,1.22-0.71,1.67c1.24,4.19-1.17,5.26-4.58,5.56
			c-1.32,0.12-2.63,0.35-3.94,0.46c-3.23,0.28-5.17,1.56-6.32,5.03c-3.33,10.04-6.94,20.01-10.93,29.81
			c-3.7,9.07-4.62,18.95-8.59,27.91c-2.15,0.89-3.57-0.36-4.65-1.87c-1.67-2.31-3.24-4.15-6.52-4.61c-2.98-0.43-1.48-3.12-0.9-4.87
			c3.96-11.8,8-23.58,11.98-35.38c0.58-1.72,0.95-3.52,1.41-5.28c1.28-1.88,1.99-3.92,1.86-6.68c-2.72,0.72-5.15,1.37-7.59,2.02
			c-2.26-0.32-4.36,1.29-7.06,0.47c-0.09-2.16,2.05-4.93-0.9-6.73c-0.06-0.16-0.12-0.31-0.16-0.46c-1.01-3.21,2.01-3.46,3.86-4.59
			c0.49,0,0.99-0.02,1.48-0.01c11.81,0.25,17.81-5.88,19.39-17.25c0.43-3.07,2.17-5.94,2.72-9c0.52-2.97,1.85-5.07,4.32-6.57
			c1.48-0.07,2.97-0.19,4.45-0.19c2.74,0.01,3.97,1.26,3.18,4.06v0.01c-0.39,5.04-0.45,10.14-1.24,15.12
			C684.125,176.56,683.935,176.53,692.195,174.48z"/>
		<path class="st1" d="M694.875,179.54c0.87,6.46,0.14,7.91-6.21,8.6c-5.07,0.54-7.46,2.92-9.01,7.62
			c-3.53,10.7-7.69,21.19-11.74,31.71c-1.8,4.69-2.48,9.63-3.95,14.37c-0.9,2.91-1.02,6.33-4.16,8.14
			c3.97-8.96,4.89-18.84,8.59-27.91c3.99-9.8,7.6-19.77,10.93-29.81c1.15-3.47,3.09-4.75,6.32-5.03c1.31-0.11,2.62-0.34,3.94-0.46
			c3.41-0.3,5.82-1.37,4.58-5.56C694.035,180.76,694.615,180.11,694.875,179.54z"/>
		<path class="st6" d="M694.145,99.21c0.02-0.05,0.04-0.1,0.05-0.15c-0.01,0.03-0.01,0.07-0.01,0.1c-0.12,0.48-0.26,0.95-0.4,1.43
			C693.895,100.13,694.015,99.67,694.145,99.21z"/>
		<path class="st10" d="M686.675,153.04c6.57,0.17,6.66,0.17,6.44,6.61c-0.17,4.95-0.6,9.89-0.92,14.83
			c-6.08-0.71-5.98-0.7-5.17-7.03c0.62-4.8,0.8-9.63-0.35-14.4V153.04z"/>
		<path class="st6" d="M693.105,110.66v0.03c-0.41,0.17-0.8,0.35-1.12,0.59c0.01-0.08,0.02-0.15,0.03-0.23
			c0.06-0.49,0.17-0.97,0.3-1.45c0.05-0.29,0.1-0.59,0.14-0.88C692.585,109.36,692.795,110,693.105,110.66z"/>
		<path class="st6" d="M690.565,119.91c0.09,0.58,0.25,1.16,0.51,1.74c-0.44,0.19-0.79,0.42-1.06,0.68v-0.01
			c0.05-0.48,0.15-0.95,0.27-1.41C690.405,120.58,690.495,120.25,690.565,119.91z"/>
		<path class="st10" d="M686.675,153.05c1.15,4.77,0.97,9.6,0.35,14.4c-0.81,6.33-0.91,6.32,5.17,7.03
			c-8.26,2.05-8.07,2.08-6.76-6.31C686.225,163.19,686.285,158.09,686.675,153.05z"/>
		<path d="M679.135,149.11c-0.03,0.02-0.06,0.04-0.09,0.06c-0.01,0-0.01,0-0.02,0L679.135,149.11z"/>
		<path class="st6" d="M679.135,149.11l-0.11,0.06c0.03-0.02,0.06-0.04,0.09-0.06C679.125,149.11,679.125,149.11,679.135,149.11z"/>
		<path class="st11" d="M669.035,79.41c1.35,0.54,2.71,1.08,4.06,1.62c-3.05,5.68-3.06,12.23-5.16,18.18
			c-0.02,0.28-0.05,0.56-0.08,0.84c-0.12,0.11-0.22,0.22-0.32,0.35c-4.3,5.78-4.29,5.78-10.44,2.39c-0.47-0.26-0.96-0.5-1.45-0.73
			c1.84-0.16,3.23-1.31,4.36-2.71c4.07-5.01,7.02-10.69,9.31-16.7C669.725,81.58,669.975,80.42,669.035,79.41z"/>
		<path class="st11" d="M673.095,81.03c-0.8,6.16-1.62,12.32-4.11,18.1c-0.37,0.32-0.79,0.58-1.13,0.92
			c0.03-0.28,0.06-0.56,0.08-0.84C670.035,93.26,670.045,86.71,673.095,81.03z"/>
		<path class="st11" d="M669.035,79.41c0.94,1.01,0.69,2.17,0.28,3.24c-2.29,6.01-5.24,11.69-9.31,16.7
			c-1.13,1.4-2.52,2.55-4.36,2.71c-0.24-0.12-0.48-0.23-0.72-0.35c2.64-0.31,3.83-2.41,5.09-4.29
			C663.805,91.82,667.095,85.95,669.035,79.41z"/>
		<path d="M669.035,79.41c-1.94,6.54-5.23,12.41-9.02,18.01c-1.26,1.88-2.45,3.98-5.09,4.29c-0.72-0.53-1.44-1.05-2.16-1.57
			c-0.53-2.04-2.98-1.52-3.95-2.98c0.37-2.11,0.75-4.23,1.18-6.68c-1.83,0.99-2.42,2.28-2.84,3.7c-7.47,11.83-11.8,24.9-14.78,38.43
			c-1.35,6.16,0.17,7.29,6.59,5.84c10.13-3.38,12.26-12.97,16.62-22.01c0.15,0.01,0.29,0.04,0.41,0.08
			c0.07,3.29,0.59,5.59,2.01,7.63c-0.09,1.41-0.18,2.82-0.27,4.22c-4.06,15.24-12.43,21.6-27.15,20.64
			c-5.16-2.87-10.25-5.79-11.83-12.15v-0.01c-0.22-2.29-0.62-4.57-0.65-6.86c-0.15-12.08,3.74-23.03,9.61-33.39
			c5.3-8.12,11.47-15.38,19.81-20.6c3.62-2.27,7.25-3.54,10.99-0.64c1.99,1.55,3.59-1.07,5.58,0.02
			C666.055,76.44,667.625,77.78,669.035,79.41z"/>
		<path class="st4" d="M663.445,125.91c0.24,0.32,0.6,0.58,1.14,0.75c-1.98,4.02-2.7,8.24-2,12.68c-2.72-2.69-1.36-5.71-0.72-8.67
			C662.205,129.03,662.975,127.52,663.445,125.91z"/>
		<path class="st12" d="M662.985,191.29c0.13,2.76-0.58,4.8-1.86,6.68c-0.46-1.46,0.52-2.91,0.2-4.31
			c-2.05-0.97-4.07,0.87-5.93-0.35C657.835,192.66,660.265,192.01,662.985,191.29z"/>
		<path class="st4" d="M661.715,121.1c1.57,1.3,0.76,3.53,1.73,4.81c-0.47,1.61-1.24,3.12-1.58,4.76c-0.64,2.96-2,5.98,0.72,8.67
			c-3.49,5.23-6.96,10.51-13.19,12.9c-6.88,2.63-13.25,2.01-18.81-3.23c4.7,2.3,9.27,1.77,13.79-0.55
			c8.31-4.25,12.48-11.47,14.57-20.2c0.04-0.19,0.08-0.37,0.12-0.56c0.52-0.72,0.42-1.85,0.84-2.64
			C660.485,123.8,661.065,122.54,661.715,121.1z"/>
		<path class="st12" d="M661.325,193.66c0.32,1.4-0.66,2.85-0.2,4.31c-3.43,0.32-7.55,1.48-5.73-4.66
			C657.255,194.53,659.275,192.69,661.325,193.66z"/>
		<path class="st4" d="M659.065,127.7c-0.04,0.19-0.08,0.37-0.12,0.56c-2.09,8.73-6.26,15.95-14.57,20.2
			c-4.52,2.32-9.09,2.85-13.79,0.55c14.72,0.96,23.09-5.4,27.15-20.64C658.415,128.3,658.815,128.05,659.065,127.7z"/>
		<path class="st4" d="M652.765,100.14c-0.16,0.27-0.31,0.55-0.46,0.82c-0.21-0.18-0.43-0.35-0.66-0.52
			C651.955,100.27,652.315,100.16,652.765,100.14z"/>
		<path class="st4" d="M652.305,100.96c0,0-0.01,0,0,0.01c-6.35,11.29-10.99,23.2-13.1,36.02c-0.13,0.06-0.27,0.12-0.41,0.17
			c-0.21,0.02-0.41,0.04-0.6,0.06c-0.51-1.26-0.28-2.63,0.06-3.96c2.69-10.49,6.17-20.7,11.45-30.2c0.54-0.97,0.96-2.09,1.94-2.62
			C651.875,100.61,652.095,100.78,652.305,100.96z"/>
		<path class="st4" d="M652.765,100.14c-0.45,0.02-0.81,0.13-1.12,0.3c-1.22-0.88-2.6-1.58-3.28-3.05c-0.18-0.51-0.29-1.04-0.3-1.58
			c0.16,0.3,0.33,0.59,0.49,0.88c0.03,0.19,0.11,0.35,0.26,0.47C649.785,98.62,652.235,98.1,652.765,100.14z"/>
		<path class="st13" d="M645.555,170.34c6.48,0.53,7.68,3.04,5.58,11.66c-4.38,0.68-4.97,1.25-3.86,4.59
			c0.04,0.15,0.1,0.3,0.16,0.46c-4.35,2.52-6.42,0.49-7.41-3.71C645.265,181.5,647.275,176.79,645.555,170.34z"/>
		<path class="st4" d="M651.645,100.44c-0.98,0.53-1.4,1.65-1.94,2.62c-5.28,9.5-8.76,19.71-11.45,30.2
			c-0.34,1.33-0.57,2.7-0.06,3.96c-4.45,0.43-5.45-0.68-4.36-5.39c2.98-12.79,7.25-25.13,13.89-36.57c0.01-0.01,0.02-0.02,0.02-0.03
			c0.11,0.2,0.21,0.39,0.32,0.58c0.01,0.54,0.12,1.07,0.3,1.58C649.045,98.86,650.425,99.56,651.645,100.44z"/>
		<path class="st14" d="M649.995,90.48c-0.43,2.45-0.81,4.57-1.18,6.68c-0.09-0.16-0.17-0.31-0.26-0.47
			c-0.16-0.76,0.41-1.92-0.34-2.34c0.02-0.09,0.05-0.19,0.09-0.28c-0.12,0.05-0.21,0.12-0.25,0.2c-0.21-0.08-0.51-0.11-0.9-0.09
			C647.575,92.76,648.165,91.47,649.995,90.48z"/>
		<path d="M648.555,96.69c0.09,0.16,0.17,0.31,0.26,0.47C648.665,97.04,648.585,96.88,648.555,96.69z"/>
		<path class="st14" d="M648.555,96.69c-0.16-0.29-0.33-0.58-0.49-0.88c-0.01-0.11-0.01-0.21-0.01-0.32
			c0.02-0.38,0.05-0.77,0.16-1.14C648.965,94.77,648.395,95.93,648.555,96.69z"/>
		<path class="st14" d="M648.305,94.07c-0.04,0.09-0.07,0.19-0.09,0.28c-0.05-0.04-0.1-0.06-0.16-0.08
			C648.095,94.19,648.185,94.12,648.305,94.07z"/>
		<path class="st14" d="M648.055,94.27c0.06,0.02,0.11,0.04,0.16,0.08c-0.11,0.37-0.14,0.76-0.16,1.14c0,0.11,0,0.21,0.01,0.32
			c-0.11-0.19-0.21-0.38-0.32-0.58C647.965,94.96,647.865,94.54,648.055,94.27z"/>
		<path class="st14" d="M648.055,94.27c-0.19,0.27-0.09,0.69-0.31,0.96c-0.2-0.35-0.39-0.7-0.59-1.05
			C647.545,94.16,647.845,94.19,648.055,94.27z"/>
		<path class="st4" d="M647.745,95.23c0,0.01-0.01,0.02-0.02,0.03c-6.64,11.44-10.91,23.78-13.89,36.57
			c-1.09,4.71-0.09,5.82,4.36,5.39c0.16,0.42,0.41,0.83,0.77,1.23c-6.42,1.45-7.94,0.32-6.59-5.84c2.98-13.53,7.31-26.6,14.78-38.43
			C647.355,94.53,647.545,94.88,647.745,95.23z"/>
		<path class="st13" d="M651.135,182c-1.85,1.13-4.87,1.38-3.86,4.59C646.165,183.25,646.755,182.68,651.135,182z"/>
		<path class="st6" d="M646.915,196.42c0.99,2.03-0.99,4.39-1.54,6.62c-3.61,14.82-7.23,29.64-10.82,44.46
			c-1.62,6.68-2.66,7.07-8.29,2.96c-0.53-0.38-0.97-0.9-1.45-1.36c4.27,0.24,4.01-3.44,4.56-5.82c3.28-14.27,6.51-28.55,10.44-42.66
			c0.42-1.47,0.52-2.94,0.13-4.43c0.31,0.11,0.66,0.16,0.94,0.32C642.985,197.65,645.355,193.25,646.915,196.42z"/>
		<path class="st13" d="M645.555,170.34c1.72,6.45-0.29,11.16-5.53,13C644.245,180.02,645.635,175.49,645.555,170.34z"/>
		<path class="st15" d="M645.555,170.34c0.08,5.15-1.31,9.68-5.53,13c-3.75,1.26-5.63-0.29-6.22-4.01c-0.5-3.19-0.48-6.27,1.13-9.19
			c1.27-2.3,2.88-4.17,5.76-4.08C643.425,166.14,644.785,167.94,645.555,170.34z"/>
		<path class="st6" d="M639.945,196.19c0.39,1.49,0.29,2.96-0.13,4.43c-3.93,14.11-7.16,28.39-10.44,42.66
			c-0.55,2.38-0.29,6.06-4.56,5.82c3.12-0.97,2.71-3.91,3.24-6.16C631.765,227.29,634.815,211.48,639.945,196.19z"/>
		<path class="st16" d="M639.125,191.19c3.79,0.47-0.12,3.4,0.82,5c-5.13,15.29-8.18,31.1-11.89,46.75
			c-0.53,2.25-0.12,5.19-3.24,6.16c-4.13-2.8-9.18-4.45-11.71-9.27c4.18-11.81,8.37-23.62,12.56-35.44c0.8-1.97,1.61-3.93,2.38-5.9
			C630.425,192.37,632.845,190.42,639.125,191.19z"/>
		<path class="st4" d="M638.795,137.16c0.14-0.05,0.28-0.11,0.41-0.17c-0.09,0.48-0.17,0.97-0.24,1.46
			c-0.36-0.4-0.61-0.81-0.77-1.23C638.385,137.2,638.585,137.18,638.795,137.16z"/>
		<path class="st4" d="M621.205,90.61c6.66-1.03,6.66-1.03,6.51,5.99c-1.91,0.67-2.7,2.4-3.5,3.98c-4.5,8.77-7.32,18.02-7.46,27.94
			c-0.04,2.89-0.62,6.03,2,8.33v0.01c-2.33,7.26-4.07,14.64-5.29,22.19c-0.89,5.44-5.49,2.6-8.47,3.06
			c-3.37,0.53-2.69-1.89-2.22-3.9c3.58,1.42,4.93-0.73,5.53-3.65c3.99-19.42,8.84-38.66,12.81-58.09c0.39-1.92,1.11-3.88,0.09-5.84
			C621.205,90.62,621.205,90.62,621.205,90.61z"/>
		<path class="st4" d="M624.215,100.58c0.8-1.58,1.59-3.31,3.5-3.98c-5.87,10.36-9.76,21.31-9.61,33.39
			c0.03,2.29,0.43,4.57,0.65,6.86c-2.62-2.3-2.04-5.44-2-8.33C616.895,118.6,619.715,109.35,624.215,100.58z"/>
		<path class="st1" d="M625.665,204.39c-4.19,11.82-8.38,23.63-12.56,35.44c-1.05-1.21-0.54-2.54-0.16-3.77
			c3.04-9.85,7.1-19.31,10.61-28.98C623.955,205.97,624.575,204.99,625.665,204.39z"/>
		<path class="st1" d="M625.175,204.01c0.27-0.01,0.43,0.12,0.49,0.38c-1.09,0.6-1.71,1.58-2.11,2.69
			c-3.51,9.67-7.57,19.13-10.61,28.98c-0.38,1.23-0.89,2.56,0.16,3.77c-3.36,5.19-5.07,11.08-7.03,16.85
			c-2.19,6.43-4.91,12.53-8.75,18.26c-3.1,4.6-7.24,5.87-12.14,6.38c-3.27,0.34-4.23-3.19-6.81-3.97c4.94,1.16,8.8-0.72,11.92-4.4
			c4.48-5.28,7.57-11.38,9.66-17.91c3.19-10.03,7.45-19.58,12.11-28.98c2.89-5.82,5.47-11.83,6.6-18.25
			c0.67-3.79,2.48-7.68,0.43-11.63c3.26-1.55,5.29-0.68,5.91,2.98C623.715,200.82,623.475,202.45,625.175,204.01z"/>
		<path class="st17" d="M625.005,199.16c0.06,1.62,0.12,3.23,0.17,4.85C624.085,202.43,624.415,200.8,625.005,199.16z"/>
		<path class="st17" d="M625.005,199.16c-0.59,1.64-0.92,3.27,0.17,4.85C623.475,202.45,623.715,200.82,625.005,199.16z"/>
		<path class="st4" d="M621.205,90.63c1.02,1.96,0.3,3.92-0.09,5.84c-3.97,19.43-8.82,38.67-12.81,58.09
			c-0.6,2.92-1.95,5.07-5.53,3.65c4.42-0.28,3.87-3.7,4.53-6.7c3.31-15.02,6.83-29.99,10.28-44.97
			C618.795,101.24,619.995,95.93,621.205,90.63z"/>
		<path d="M616.005,86.13c5.35-1.34,5.93-0.87,5.19,4.49c0,0,0,0.01,0.01,0.01c-1.21,5.3-2.41,10.61-3.62,15.91
			c-3.45,14.98-6.97,29.95-10.28,44.97c-0.66,3-0.11,6.42-4.53,6.7h-0.01c-1.05-0.01-2.1-0.02-3.15-0.03h-0.01
			c-6.32-0.37-2.12-4.99-2.85-7.94c-5.21,5.39-9.63,11.49-18.1,10.16c-8.47-2.07-8.19-8.92-8.46-15.48
			c0.95-3.49,1.9-6.99,2.84-10.49c1.14-1.2,1.5-2.74,1.83-4.28c4.58-10.37,10.13-20.14,18.02-28.4c4.52-4.72,9.58-8.74,16.28-9.9
			c1.88-0.32,2.96-1.31,3.6-2.98C613.345,87.36,614.385,86.53,616.005,86.13z M600.015,121.92c1.37-5.13,2.75-10.27,4.13-15.4
			c-13.44,11.33-20.5,25.62-22.22,43.19c4.65-1.19,7.66-3.35,9.2-7.34c4.48-3.6,5.43-8.99,7.1-14.02
			C599.285,126.34,599.935,124.21,600.015,121.92z"/>
		<path class="st1" d="M619.095,196.18c2.05,3.95,0.24,7.84-0.43,11.63c-1.13,6.42-3.71,12.43-6.6,18.25
			c-4.66,9.4-8.92,18.95-12.11,28.98c-2.09,6.53-5.18,12.63-9.66,17.91c-3.12,3.68-6.98,5.56-11.92,4.4
			c10.05-0.7,14.61-7.97,17.55-15.99c5.43-14.79,11.8-29.15,18.25-43.49C617.275,210.99,618.515,203.65,619.095,196.18z"/>
		<path d="M619.095,196.18c-0.58,7.47-1.82,14.81-4.92,21.69c-6.45,14.34-12.82,28.7-18.25,43.49c-2.94,8.02-7.5,15.29-17.55,15.99
			h-0.01c-4.88-3.45-10.67-5.69-14.35-10.7c-1.69-2.32-3.43-5.09-0.71-7.56c2.61-2.37,5.75-1.35,8.14,0.65
			c2.38,1.98,4.33,4.47,6.62,6.91c3.47-3.62,4.89-8.38,6.58-13c0.85-2.41,1.71-4.83,2.57-7.25c1.02-1.54,2.15-3.04,1.49-5.74
			c-1.21,1.42-2.02,2.38-2.83,3.34c-3.97,3.8-8.71,5.8-14.19,6.03c-5.57-2.44-9.55-6.08-9.5-12.73c1.03-2.29,1.17-4.69,0.79-7.14
			c1.39-4.29,2.79-8.58,4.18-12.87c1.88-0.74,2.47-2.4,2.94-4.14c3.51-4.85,7.1-9.62,11.32-13.91c4.21-4.28,9.16-6.46,15.16-6.41
			c6.16,0.04,12.27-0.6,18.38-1.49C618.435,190.83,617.575,194.66,619.095,196.18z M600.955,208.09c0.39-1.55,1.44-3.43-0.04-4.71
			c-1.76-1.52-3.5,0.1-4.95,0.98c-9.86,5.92-16.77,14.4-21.1,24.99c-1.08,2.66-2.01,6.15,0.33,7.91c2.46,1.86,4.5-1.35,6.52-2.8
			c7.37-6.44,13.22-14.06,17.62-22.8C599.885,210.47,600.635,209.33,600.955,208.09z"/>
		<path class="st18" d="M604.145,106.52c-1.38,5.13-2.76,10.27-4.13,15.4c-1.39,1.1-2.28,2.53-2.78,4.22v0.01
			c-2.49,5.24-6.25,9.99-6.11,16.22c-1.54,3.99-4.55,6.15-9.2,7.34C583.645,132.14,590.705,117.85,604.145,106.52z"/>
		<path class="st6" d="M600.915,203.38c1.48,1.28,0.43,3.16,0.04,4.71c-0.32,1.24-1.07,2.38-1.62,3.57
			c-9.11,5.1-14.66,12.95-17.62,22.8c-2.02,1.45-4.06,4.66-6.52,2.8c-2.34-1.76-1.41-5.25-0.33-7.91
			c4.33-10.59,11.24-19.07,21.1-24.99C597.415,203.48,599.155,201.86,600.915,203.38z"/>
		<path class="st9" d="M599.605,158.18c-4.34,0.05-4.74-0.53-3.95-5.72c0.31-0.59-0.95-0.2-0.28-0.16c0.17,0.01,0.17,0.17-0.01,0.48
			c-3.95,6.88-10.17,9.72-16.71,7.62c8.47,1.33,12.89-4.77,18.1-10.16C597.485,153.19,593.285,157.81,599.605,158.18z"/>
		<path class="st9" d="M595.655,152.46c-0.79,5.19-0.39,5.77,3.95,5.72c-6.18,6.75-10.97,8.39-16.96,5.72
			c-1.66-0.74-3.36-1.54-3.99-3.5c6.54,2.1,12.76-0.74,16.71-7.62c0.18-0.31,0.18-0.47,0.01-0.48
			C594.705,152.26,595.965,151.87,595.655,152.46z"/>
		<path class="st19" d="M588.705,240.66c0.66,2.7-0.47,4.2-1.49,5.74c0.4-1.28,0.64-2.46-1.34-2.4
			C586.685,243.04,587.495,242.08,588.705,240.66z"/>
		<path class="st19" d="M585.875,244c1.98-0.06,1.74,1.12,1.34,2.4c-0.09-0.45-0.15-0.92-0.33-1.33c0.05-0.13,0.09-0.27,0.09-0.42
			c-0.09,0.02-0.17,0.05-0.25,0.09C586.545,244.43,586.275,244.18,585.875,244z"/>
		<path class="st20" d="M587.215,246.4c-0.86,2.42-1.72,4.84-2.57,7.25c-0.92-2.88,1.22-5.04,1.75-7.58c0.08-0.37,0.35-0.66,0.49-1
			C587.065,245.48,587.125,245.95,587.215,246.4z"/>
		<path class="st19" d="M586.975,244.65c0,0.15-0.04,0.29-0.09,0.42c-0.04-0.12-0.1-0.23-0.16-0.33
			C586.805,244.7,586.885,244.67,586.975,244.65z"/>
		<path class="st20" d="M586.725,244.74c0.06,0.1,0.12,0.21,0.16,0.33c-0.14,0.34-0.41,0.63-0.49,1c-0.53,2.54-2.67,4.7-1.75,7.58
			c-4.96,1.08-9.46,0.52-12.96-3.62c5.95,2.17,10.14-1.17,14.32-4.6C586.265,245.21,586.445,244.9,586.725,244.74z"/>
		<path class="st20" d="M586.725,244.74c-0.28,0.16-0.46,0.47-0.72,0.69c-4.18,3.43-8.37,6.77-14.32,4.6
			c5.48-0.23,10.22-2.23,14.19-6.03C586.275,244.18,586.545,244.43,586.725,244.74z"/>
		<path class="st21" d="M571.075,182.33c4.63,1.02,7.38,3.71,7,8.64c-0.26,3.47-5.32,6.95-9.66,7.17c-3.27,0.17-3.69-2.84-5.33-4.49
			C570.475,193.72,574.145,188.51,571.075,182.33z"/>
		<path class="st22" d="M573.895,118.2c0.77,3.29,0.52,6.58,0,9.86C573.365,124.78,573.365,121.49,573.895,118.2z"/>
		<path class="st6" d="M573.895,128.06c0.02,0.39,0.04,0.78,0.06,1.17c0,0.01,0,0.01,0,0.02c-0.82,0.89-0.94,1.9-0.93,2.93
			c-0.32,0.67-0.58,1.4-0.93,2.06c-1.2,3.46-2.72,6.86-1.9,10.68c-3.52,6.41-5.23,13.53-6.29,20.55c-0.58,3.82-2.32,3.87-4.62,3.86
			c-2.95-0.03-7.14,1.66-7.32-3.85c3.48,1.55,5.4-0.07,6.33-3.28c0.87-3.03,1.59-6.1,2.41-9.15c2.71-10.08,7.04-19.72,8.35-30.18
			c0.47-3.76,1.3-7.65-1.88-10.8c3.83,0.3,5.91,2.52,6.72,6.13C572.575,121.49,572.575,124.78,573.895,128.06z"/>
		<path class="st22" d="M573.895,118.2c-0.53,3.29-0.53,6.58,0,9.86C572.575,124.78,572.575,121.49,573.895,118.2z"/>
		<path class="st6" d="M573.025,132.18c0,0.75,0.08,1.51,0.01,2.25c-0.94,3.5-1.89,7-2.84,10.49c-0.82-3.82,0.7-7.22,1.9-10.68
			C572.445,133.58,572.705,132.85,573.025,132.18z"/>
		<path class="st6" d="M571.275,203.68c1.61,1.71-1.53,3.84-1.82,6.03c-0.1,0.82-0.37,1.61-0.57,2.41
			c-0.72,1.13-1.27,2.32-1.54,3.61c-0.43,0.54-0.82,1.12-1.16,1.75c-1.82,4.18-3.8,8.3-4.34,12.91c-0.21,0.68-0.19,1.36-0.07,2.03
			c-0.38,0.89-0.62,1.83-0.49,2.89c-1.37,4.58-2.76,9.15-4.07,13.74c-0.26,0.92-0.49,2-0.23,2.85c0.29,1,2.8,1.46,0.93,2.97
			c-1.27,1.01-2.92,1.54-4.65,0.69c-2.51-1.22-5.1-2.32-7.11-4.35c5.6,1.29,6.3,0.8,6.05-4.5c-0.09-1.72,0.37-3.29,0.81-4.88
			c2.84-10.27,5.74-20.51,9.25-30.57c0.82-2.35,1.75-4.7,1.41-7.28v-0.01c0.17-0.01,0.34-0.01,0.5-0.05
			C566.575,203.31,569.625,201.95,571.275,203.68z"/>
		<path class="st21" d="M571.075,182.33c3.07,6.18-0.6,11.39-7.99,11.32C571.055,190.71,572.205,189.07,571.075,182.33z"/>
		<path class="st15" d="M571.075,182.33c1.13,6.74-0.02,8.38-7.99,11.32c-3.54,0.98-4.68-1.48-5.75-4.03
			c-1.55-3.71,1.82-6.79,1.41-10.57c-0.15-1.45,3.38-1.19,5.35-1.06C567.185,178.18,569.175,180.2,571.075,182.33z"/>
		<path class="st6" d="M567.175,112.07c3.18,3.15,2.35,7.04,1.88,10.8c-1.31,10.46-5.64,20.1-8.35,30.18
			c-0.82,3.05-1.54,6.12-2.41,9.15c-0.93,3.21-2.85,4.83-6.33,3.28c3.25-0.48,4.85-1.38,5.63-5.57c1.74-9.25,5.26-18.16,7.86-27.26
			C567.375,125.93,569.155,119.14,567.175,112.07z"/>
		<path d="M567.175,112.07c1.98,7.07,0.2,13.86-1.72,20.58c-2.6,9.1-6.12,18.01-7.86,27.26c-0.78,4.19-2.38,5.09-5.63,5.57
			c-6.54-0.63-6.39-0.64-6.07-7.01c0.27-5.27,3.03-10.01,2.98-15.31c3.52-7.07,4.95-14.75,7.25-23.3c-3.82,2.97-6.02,5.84-8.18,8.75
			c-8.49,11.39-12.76,24.61-16.35,38.08c-0.9,3.36-2.36,5.08-5.38,4.46c-0.04,0-0.07-0.01-0.11-0.03c-0.38-0.1-0.78-0.22-1.21-0.35
			c-0.78-0.84-1.56-2.4-2.35-2.41c-6.73-0.08-4.23-4.09-3.21-7.33c2.86-9.08,5.81-18.12,8.72-27.17c1.27-3.04,2.43-6.13,2.88-9.43
			c0.64-1.88,1.38-3.73,1.88-5.65c0.88-3.36,1.17-7.09,6.44-5.6c1.76,0.5,2.82-2.31,5.09-1.84c0.85,1.87-0.8,3.58-0.58,5.87
			c3.5-1.6,5.42-4.78,8.28-6.77C557.965,106.32,562.815,106.77,567.175,112.07z"/>
		<path class="st6" d="M567.345,215.73c-0.11,0.5-0.18,1.02-0.19,1.56c-1.39,4.29-2.79,8.58-4.18,12.87
			c-0.42,0.75-0.86,1.48-1.2,2.26c-0.12-0.67-0.14-1.35,0.07-2.03c0.54-4.61,2.52-8.73,4.34-12.91
			C566.525,216.85,566.915,216.27,567.345,215.73z"/>
		<path d="M565.525,199.48c-0.62,1.5-1.23,2.99-1.85,4.49v0.01c-5.38,13.4-8.89,27.4-13.2,41.15c-0.19,0.62-0.39,1.33-0.29,1.95
			c0.77,4.43,0.79,4.42-4.03,4.13c-3.53-2.19-7.03-4.42-10.58-6.56c-1.38-0.84-2.64-1.52-1.28-3.39
			c7.88-10.88,11.9-23.7,17.79-35.58C554.965,199.88,558.655,198.2,565.525,199.48z"/>
		<path class="st6" d="M563.675,203.98c0.34,2.58-0.59,4.93-1.41,7.28c-3.51,10.06-6.41,20.3-9.25,30.57
			c-0.44,1.59-0.9,3.16-0.81,4.88c0.25,5.3-0.45,5.79-6.05,4.5c4.82,0.29,4.8,0.3,4.03-4.13c-0.1-0.62,0.1-1.33,0.29-1.95
			C554.785,231.38,558.295,217.38,563.675,203.98z"/>
		<path class="st6" d="M556.125,119.86c-2.3,8.55-3.73,16.23-7.25,23.3c-0.01-4.93,2.5-9.2,3.56-13.85c0.4-1.76,1.11-3.44,1.2-5.63
			c-9.04,9.66-14.02,21.14-17.86,33.21c-1.05,3.32-1.88,6.71-2.9,10.05c-1.38,4.52-2.47,5.34-6.66,4.21
			c3.02,0.62,4.48-1.1,5.38-4.46c3.59-13.47,7.86-26.69,16.35-38.08C550.105,125.7,552.305,122.83,556.125,119.86z"/>
		<path class="st6" d="M553.635,123.68c-0.09,2.19-0.8,3.87-1.2,5.63c-1.06,4.65-3.57,8.92-3.56,13.85
			c-4.48,6.15-6.29,13.44-8.65,20.49c-0.95,2.83-1.61,5.76-2.4,8.64c-0.75,2.77-3.09,4.39-5.17,2.94c-2.49-1.75-5.71-2.11-7.76-4.46
			c0.43,0.16,0.83,0.28,1.21,0.35c0.04,0.02,0.07,0.03,0.11,0.03c4.19,1.13,5.28,0.31,6.66-4.21c1.02-3.34,1.85-6.73,2.9-10.05
			C539.615,144.82,544.595,133.34,553.635,123.68z"/>
		<path class="st1" d="M529.015,187.62c9.71,5.22,14.85,16.1,12.83,27.37c-2.42,13.46-9.09,23.93-21.18,30.91
			c-9.9,5.72-20.26,9.8-31.68,11.03c-3.6-1.29-7.21-1.25-10.82-0.03c-2.36-0.48-4.58-1.16-5.56-3.71c2.39,1.63,5.07,1.4,7.71,1.11
			c13.81-1.51,26.47-6.17,37.94-14c12.17-8.31,18.08-19.92,18.21-34.62C536.525,198.56,535.025,192.18,529.015,187.62z"/>
		<path class="st1" d="M529.015,187.62c6.01,4.56,7.51,10.94,7.45,18.06c-0.13,14.7-6.04,26.31-18.21,34.62
			c-11.47,7.83-24.13,12.49-37.94,14c-2.64,0.29-5.32,0.52-7.71-1.11c17.7,0.03,33.44-5.56,47.72-15.95
			c12.39-9.02,17.69-29.19,13.86-40.05C532.945,193.68,530.895,190.72,529.015,187.62z"/>
		<path d="M534.185,197.19c3.83,10.86-1.47,31.03-13.86,40.05c-14.28,10.39-30.02,15.98-47.72,15.95c-7.68-3.23-9.22-6.5-6.97-15.38
			c2.59-10.19,7.15-19.66,11.03-29.37c1.15-2.86,2.96-5.6,2.42-9.48c-3.09,1.63-5.49,1.69-6.55-2.32c-0.57-2.12-0.39-3.23,1.49-4.51
			c6.06-4.11,12.08-8.22,19.26-10.19c2.15-0.48,4.32-0.95,6.49-1.43c0.01,0,0.01,0,0.02,0c10.7-1.57,20.78-0.58,29.22,7.11
			C530.895,190.72,532.945,193.68,534.185,197.19z M520.895,206.98c0.82-3.94-0.01-7.97-3.57-10.78c-3.53-4.54-8.58-4.42-13.6-4.49
			c-2.47-0.03-3.49,0.76-3.46,3.45c0.05,5.21-1.45,10.17-3.08,15.08c-3.16,9.51-6.29,19.02-9.7,29.34c3.63-1.05,6.47-1.88,9.31-2.7
			C512.015,232.72,517.955,220.94,520.895,206.98z"/>
		<path class="st6" d="M530.935,124.43c-0.45,3.3-1.61,6.39-2.88,9.43C527.685,130.31,528.915,127.25,530.935,124.43z"/>
		<path class="st6" d="M530.935,124.43c-2.02,2.82-3.25,5.88-2.88,9.43c-7.57,4.02-13.63,9.82-19.2,16.23
			c-2.73,3.15-3.44,7.05-4.33,10.92c-1.51,6.51-3.14,13-4.73,19.5c-0.01,0-0.01,0-0.02,0c-2.31-0.18-4.78-1.1-6.49,1.43
			c-0.88-2.96-5.88-0.29-5.95-4.35c3.09,2.87,4.82,0.6,6.19-1.84c2.39-4.25,3.9-8.92,4.51-13.71c1.22-9.58,5.46-17.27,12.83-23.49
			c2.81-2.37,5.74-4.53,8.76-6.6c2.47-1.69,5.06-3.31,6.79-5.82c1.15-1.68,2.35-3.56-0.52-4.89
			C529.155,119.79,529.375,123.19,530.935,124.43z"/>
		<path class="st6" d="M525.895,121.24c2.87,1.33,1.67,3.21,0.52,4.89c-1.73,2.51-4.32,4.13-6.79,5.82
			c-3.02,2.07-5.95,4.23-8.76,6.6c-7.37,6.22-11.61,13.91-12.83,23.49c-0.61,4.79-2.12,9.46-4.51,13.71
			c-1.37,2.44-3.1,4.71-6.19,1.84c2.65,0.99,4.34,0.16,5.48-2.48c1.86-4.29,3.51-8.74,3.93-13.31c1.24-13.6,9.66-22.07,19.96-29.41
			c2.97-2.12,5.82-4.4,8.71-6.62C527.125,124.44,527.735,122.96,525.895,121.24z"/>
		<path d="M525.895,121.24c1.84,1.72,1.23,3.2-0.48,4.53c-2.89,2.22-5.74,4.5-8.71,6.62c-10.3,7.34-18.72,15.81-19.96,29.41
			c-0.42,4.57-2.07,9.02-3.93,13.31c-1.14,2.64-2.83,3.47-5.48,2.48c-1.79-1.7-4.08-2.1-6.38-2.49c0.29-2.32,0.58-4.64,0.87-6.97
			c2.64-11.73,6.39-23.14,9.85-34.63c1.19-7.71,9.14-7.22,13.41-12.15c0.86,4.05-1.38,6.58-1.34,10.38
			c4.1-4.08,7.69-7.75,11.39-11.32c5.05-4.87,5.07-4.82,9.46,0.17C524.895,120.91,525.455,121.02,525.895,121.24z"/>
		<path class="st6" d="M517.325,196.2c-9.41-0.22-9.49-0.24-11.07,8.79c-1.64,9.38-5.92,17.93-8.24,27.08
			c-0.41,1.6-0.81,3.21-1.22,4.81c-1.21-1.7-0.72-3.49-0.2-5.23c3.29-11.08,7.96-21.76,9.36-33.37c0.35-2.93,2.72-3.45,5.19-3.5
			C513.315,194.73,515.425,195.03,517.325,196.2z"/>
		<path class="st6" d="M517.325,196.2c-1.9-1.17-4.01-1.47-6.18-1.42c-2.47,0.05-4.84,0.57-5.19,3.5
			c-1.4,11.61-6.07,22.29-9.36,33.37c-0.52,1.74-1.01,3.53,0.2,5.23c-2.84,0.82-5.68,1.65-9.31,2.7c3.41-10.32,6.54-19.83,9.7-29.34
			c1.63-4.91,3.13-9.87,3.08-15.08c-0.03-2.69,0.99-3.48,3.46-3.45C508.745,191.78,513.795,191.66,517.325,196.2z"/>
		<path class="st6" d="M499.775,180.51c-2.17,0.48-4.34,0.95-6.49,1.43C494.995,179.41,497.465,180.33,499.775,180.51z"/>
		<path class="st4" d="M491.675,133.5c-1.76,0.98-2.27,2.77-2.78,4.49c-2.91,9.95-6.22,19.79-8.27,29.97
			c-0.18,0.77-0.32,1.54-0.38,2.31c-0.44,0.94-0.7,1.96-1.03,2.94c-2.34,4.16-3.05,9.06-5.9,12.99c-2.09,0.29-4.46-1.04-6.22,1.11
			c-1.04,0.97-2.41,2.37-3.61,1.38c-1.5-1.25,0.45-2.87,0.52-4.39c0.01-0.16,0.03-0.32,0.03-0.48c0.21,0,0.4,0.02,0.61,0.06
			c2.77,0.35,3.97-1.61,4.7-3.65c4.26-11.94,11.02-22.81,14.99-34.86c1.28-3.88,3.1-7.75,1.83-12.05
			C488.005,133.4,489.875,132.48,491.675,133.5z"/>
		<path class="st4" d="M488.895,137.99c0.51-1.72,1.02-3.51,2.78-4.49c-3.46,11.49-7.21,22.9-9.85,34.63
			c-0.75,0.61-1.23,1.34-1.58,2.14c0.06-0.77,0.2-1.54,0.38-2.31C482.675,157.78,485.985,147.94,488.895,137.99z"/>
		<path class="st4" d="M486.165,133.32c1.27,4.3-0.55,8.17-1.83,12.05c-3.97,12.05-10.73,22.92-14.99,34.86
			c-0.73,2.04-1.93,4-4.7,3.65c-0.21-0.04-0.4-0.06-0.61-0.06c0.02-0.18,0.03-0.36,0.04-0.53c1.28-0.2,2.55-0.19,3.15-1.82
			c5.45-14.65,14.26-27.92,17.83-43.35C485.425,136.52,485.795,134.92,486.165,133.32z"/>
		<path d="M486.165,133.32c-0.37,1.6-0.74,3.2-1.11,4.8c-3.57,15.43-12.38,28.7-17.83,43.35c-0.6,1.63-1.87,1.62-3.15,1.82
			c-1.31-0.3-2.69-0.56-3.85,0.19c-3.28,2.13-4.39,1.14-3.1-3.78c-6.62,5.22-12.38,9.45-20.11,7.74c-7.98-2.86-8.97-5.79-5.64-16.65
			c1.18-2.19,2.36-4.4,3.74-6.97c-12.03,1.68-12.18,1.64-14.93,12.65c-2.49,9.93-8.38,16.2-18.33,18.88
			c-8.14,2.19-16.33,2.62-24.65,1.61c-7.66-3.44-12.41-13.64-9.86-24.07c5.57-22.73,19.31-39.3,39.99-50.12
			c4.36-2.29,9.22-2.51,14.02-3.04c3.83-0.42,7.13-0.45,7.89,4.39c0.08,0.35,0.16,0.7,0.24,1.04c-0.53,8.58-6.37,14.13-11.46,20.11
			c-2.88-0.58-4.92-2.51-6.97-4.4c-1.29-2.39,1.04-4.33,0.94-6.69c-4.92-0.89-7.92,2.26-10.75,5.14
			c-11.44,11.66-14.88,26.6-16.44,42.12c-0.37,3.65,0.77,7.33,5.27,8.41c0.61,0.03,1.22,0.06,1.84,0.09
			c9.74-1.07,11.81-8.92,14.56-16.52c-3.13-0.95-5.2,1.87-8.37,1.97c1.29-5.13,3.63-9.25,8.02-12.09
			c7.13-4.61,15.19-6.53,23.37-8.28c5.01-1.07,4.43,4.09,7.05,5.76c3.51-4.4,6.91-8.92,10.58-13.2c4.94-5.76,10.85-10.32,17.9-13.24
			c1.81-0.75,3.8-1.97,5.74-1.26c2.59,0.95,3.89,0.07,5.34-1.98c1.89-2.66,5.04-2.29,7.77-2.08
			C486.325,129.2,486.065,131.51,486.165,133.32z M470.445,143.43c-2.69-0.51-3.78,0.95-5.07,1.86
			c-8.66,6.08-14.79,14.3-19.26,23.73c-1.48,3.12-4.67,8.03-1.99,9.74c2.57,1.65,6.6-2.36,9.06-5.38c2.12-1.43,3.42-3.42,4.02-5.9
			c2.47-0.9,2.44-3.43,3.43-5.28c1.48-0.55,1.87-1.89,2.26-3.21C465.375,153.87,467.865,148.76,470.445,143.43z"/>
		<path class="st23" d="M488.985,256.93c-3.6-0.53-7.21-0.48-10.82-0.03C481.775,255.68,485.385,255.64,488.985,256.93z"/>
		<path class="st23" d="M478.165,256.9c3.61-0.45,7.22-0.5,10.82,0.03C485.375,257.43,481.765,257.65,478.165,256.9z"/>
		<path class="st24" d="M467.095,187.31c1.76-2.15,4.13-0.82,6.22-1.11C471.385,187.39,468.945,185.67,467.095,187.31z"/>
		<path class="st24" d="M467.095,187.31c1.85-1.64,4.29,0.08,6.22-1.11C471.595,188.53,469.115,186.64,467.095,187.31z"/>
		<path class="st18" d="M465.375,145.29c1.29-0.91,2.38-2.37,5.07-1.86c-2.58,5.33-5.07,10.44-7.55,15.56
			c-2.05,0.15-2.51,1.41-2.29,3.16c-2.31,0.17-2.88,2.07-3.66,3.75c-2.2,2.02-3.45,4.51-3.76,7.48c-2.46,3.02-6.49,7.03-9.06,5.38
			c-2.68-1.71,0.51-6.62,1.99-9.74C450.585,159.59,456.715,151.37,465.375,145.29z"/>
		<path class="st25" d="M464.075,183.29c-0.01,0.17-0.02,0.35-0.04,0.53c-0.12-0.01-0.25-0.01-0.37,0
			c-0.01-0.07,0.01-0.15,0.05-0.22C463.835,183.39,463.955,183.29,464.075,183.29z"/>
		<path class="st25" d="M464.035,183.82c0,0.16-0.02,0.32-0.03,0.48c-0.22-0.17-0.33-0.33-0.34-0.48
			C463.785,183.81,463.915,183.81,464.035,183.82z"/>
		<path class="st25" d="M464.075,183.29c-0.12,0-0.24,0.1-0.36,0.31c-0.04,0.07-0.06,0.15-0.05,0.22c-2.99,0.13-5.96,3.04-9.18,0.01
			c-0.68-0.64-2.69,1.51-4.15,2.24c-4.26,2.15-8.48,4.82-13.32,1.37c7.73,1.71,13.49-2.52,20.11-7.74c-1.29,4.92-0.18,5.91,3.1,3.78
			C461.385,182.73,462.765,182.99,464.075,183.29z"/>
		<path class="st25" d="M463.665,183.82c0.01,0.15,0.12,0.31,0.34,0.48c-3.19,2.05-6.25,4.33-9.6,6.09
			c-6.42,3.36-13.53,2.03-17.39-2.95c4.84,3.45,9.06,0.78,13.32-1.37c1.46-0.73,3.47-2.88,4.15-2.24
			C457.705,186.86,460.675,183.95,463.665,183.82z"/>
		<path d="M460.595,205.02c1.25,3.7-2.41,3.62-4.08,5.08h-0.01c-2.9-0.29-5.59,0.71-8.32,1.37c-16.67,3.97-33.29,7.88-50.62,7.97
			c-7.6,0.05-15.33,0.91-22.54,3.78c-3.62,1.45-7.2,2.4-11.09,2.01c-1.83-0.62-0.95-1.69-0.43-2.69c2.81-5.39,7.82-7.6,13.32-8.53
			c14.38-2.43,28.82-4.44,43.21-6.84c10.29-1.72,20.51-3.88,30.49-7.02C453.615,199.18,459.595,202.05,460.595,205.02z"/>
		<path class="st6" d="M456.515,210.1c2.01,2.83,2.31,5.63-1.66,6.49c-15.88,3.44-31.52,8.16-47.84,9.41
			c-3.08-1.74-6.42-0.66-9.63-0.67c-0.54,0,0.48,0.64,0.88,0.9c-4.46,1.42-9.13,0.47-13.66,1.27c-5.66,1-11.24,2.29-16.59,4.42
			c-2.03-1.59-5.39,0.14-6.88-2.77c0.94-1.31,1.87-2.61,2.8-3.92c3.16,2.3,6.41,1.08,9.54,0.08c5.72-1.84,11.45-3.41,17.5-3.84
			c14.27-1.02,28.63-1.34,42.56-5.07c7.67-2.05,15.71-2.79,22.97-6.3H456.515z"/>
		<path class="st6" d="M448.185,211.47c2.73-0.66,5.42-1.66,8.32-1.37c-7.26,3.51-15.3,4.25-22.97,6.3
			c-13.93,3.73-28.29,4.05-42.56,5.07c-6.05,0.43-11.78,2-17.5,3.84c-3.13,1-6.38,2.22-9.54-0.08c3.89,0.39,7.47-0.56,11.09-2.01
			c7.21-2.87,14.94-3.73,22.54-3.78C414.895,219.35,431.515,215.44,448.185,211.47z"/>
		<path class="st4" d="M434.105,126.14c3.07,3.89,2.36,7.66-0.32,11.4c-1.64,2.29-3.32,4.56-4.78,6.96
			c-3.77,6.25-5.69,6.41-10.98,0.77c2.38,1.07,3.33-0.83,4.24-2.27c2.2-3.48,4.45-6.91,6.64-10.39c1.39-2.2,1.7-4.6,1.11-7.11
			c-0.05-0.13-0.11-0.25-0.17-0.37C431.355,125.02,432.775,125.35,434.105,126.14z"/>
		<path class="st26" d="M433.975,77.8c0.15,4.03,0.76,7.63-2.88,10.08v0.01c-0.01,0-0.01,0.01-0.02,0.01
			c-3.3,1.88-6.64,3.73-9.92,5.65c-22.38,13.07-46.31,23.4-67.66,38.26c-2.05,1.43-3.35,0.18-4.95-0.41
			c-1.62-1.08-2.72-1.93-0.66-3.95c3.21-3.13,7.14-4.75,11.15-6.29c3.49-1.34,6.7-2.93,8.31-6.58c0.81-1.83,2.6-2.5,4.1-3.46
			c16.38-10.44,34.39-17.81,51.37-27.1C426.415,82.05,429.975,80.03,433.975,77.8z"/>
		<path class="st27" d="M429.245,124.12c1.49,0.99,4.86-2.55,4.86,2.02c-1.15-1.71-2.63-1.91-4.31-1.12
			C429.635,124.7,429.455,124.41,429.245,124.12z"/>
		<path class="st6" d="M431.375,170.79c-0.54-1.69,1.11-3.08,0.68-4.76c-7.46,0.68-8.31,1.36-9.89,7.89
			c-3.87,15.94-12.36,23.3-28.92,24.34c-5.33,0.33-10.88,1.35-16.04-1.3c8.32,1.01,16.51,0.58,24.65-1.61
			c9.95-2.68,15.84-8.95,18.33-18.88c2.75-11.01,2.9-10.97,14.93-12.65C433.735,166.39,432.555,168.6,431.375,170.79z"/>
		<path class="st6" d="M432.055,166.03c0.43,1.68-1.22,3.07-0.68,4.76c-2.29,0.27-2.78,2-3.21,3.86c-0.55,2.41-1.22,4.81-1.81,7.22
			c-2.2,9.01-7.74,14.84-16.64,17.41c-8.34,2.4-16.78,3.96-25.47,1.91c-2.79-0.66-5.37-1.7-7.04-4.23
			c5.16,2.65,10.71,1.63,16.04,1.3c16.56-1.04,25.05-8.4,28.92-24.34C423.745,167.39,424.595,166.71,432.055,166.03z"/>
		<path class="st27" d="M429.795,125.02c1.68-0.79,3.16-0.59,4.31,1.12c-1.33-0.79-2.75-1.12-4.26-1.01
			C429.835,125.09,429.815,125.05,429.795,125.02z"/>
		<path class="st6" d="M431.095,87.89c0.56,3.76-1.12,5.98-4.37,7.97c-19.14,11.79-39.58,21.19-59.01,32.45
			c-5.32,3.08-10.69,6.17-15.58,9.87c-3.23,2.43-5.85,1.62-7.71-0.68c-2.08-2.56,1.75-3.11,2.69-4.72c0.32-0.55,0.94-0.93,1.43-1.38
			c1.69,3.19,4.09,2.36,6.29,0.87c18.99-12.78,39.67-22.52,59.62-33.59c5.75-3.19,12.11-5.6,16.62-10.78
			C431.085,87.9,431.085,87.89,431.095,87.89z"/>
		<path class="st4" d="M430.015,125.5c0.59,2.51,0.28,4.91-1.11,7.11c-2.19,3.48-4.44,6.91-6.64,10.39
			c-0.91,1.44-1.86,3.34-4.24,2.27c5.09-5.98,10.93-11.53,11.46-20.11c0.12-0.02,0.24-0.03,0.36-0.03
			C429.905,125.25,429.965,125.37,430.015,125.5z"/>
		<path class="st27" d="M429.795,125.02c0.02,0.03,0.04,0.07,0.05,0.11c-0.12,0-0.24,0.01-0.36,0.03
			C429.595,125.1,429.695,125.05,429.795,125.02z"/>
		<path class="st27" d="M429.795,125.02c-0.1,0.03-0.2,0.08-0.31,0.14c-0.08-0.34-0.16-0.69-0.24-1.04
			C429.455,124.41,429.635,124.7,429.795,125.02z"/>
		<path class="st6" d="M431.075,87.9c-4.51,5.18-10.87,7.59-16.62,10.78c-19.95,11.07-40.63,20.81-59.62,33.59
			c-2.2,1.49-4.6,2.32-6.29-0.87c1.6,0.59,2.9,1.84,4.95,0.41c21.35-14.86,45.28-25.19,67.66-38.26
			C424.435,91.63,427.775,89.78,431.075,87.9z"/>
		<path class="st6" d="M411.995,134.18c0.1,2.36-2.23,4.3-0.94,6.69c-0.51-0.11-0.99-0.39-1.1-0.87c-1.08-4.66-1.59-4.88-5.33-1.89
			c-3.66,2.94-6.78,6.42-9.01,10.53c-5.51,10.17-9.04,20.95-9.29,32.65c-0.07,3.22,0.88,5.84,3.75,7.56c0,0.33,0,0.67,0,1
			c-4.5-1.08-5.64-4.76-5.27-8.41c1.56-15.52,5-30.46,16.44-42.12C404.075,136.44,407.075,133.29,411.995,134.18z"/>
		<path class="st6" d="M409.955,140c0.11,0.48,0.59,0.76,1.1,0.87c-9.66,7.31-13.96,17.77-16.98,28.98
			c-1.03,3.81-1.94,7.66-2.91,11.49c-0.25-0.7,0.28-1.67-1.09-2.29c0,3.37,0,6.59,0,9.8c-2.87-1.72-3.82-4.34-3.75-7.56
			c0.25-11.7,3.78-22.48,9.29-32.65c2.23-4.11,5.35-7.59,9.01-10.53C408.365,135.12,408.875,135.34,409.955,140z"/>
		<path class="st28" d="M408.985,260.44c3.82,2.79-1.16,4.65-2.49,6.79c-1.8,0.12-3.73,0.6-5.17-0.85
			c-3.33-3.37-7.75-3.48-11.94-3.87c-6.21-0.57-12.54,0.68-18.72-0.92c-1.98-0.85-3.96-1.7-6.03-2.58
			C378.535,249.35,398.235,252.6,408.985,260.44z"/>
		<path class="st29" d="M407.015,226c-2.91,0.08-5.83,0.16-8.75,0.23C401.155,225.08,404.085,225.57,407.015,226z"/>
		<path class="st4" d="M406.505,267.23c2.77,2.58-0.03,4.17-1.25,5.74c-1.59,2.04-4.23,2.75-6.19,1.04
			c-5.48-4.78-12-4.03-18.36-3.92c-6.68,0.12-13.11-0.42-19.42-4.34c3.43-1.53,6.41-2.85,9.38-4.16c1.86,2.67,4.73,1.89,7.24,1.92
			c8.07,0.07,16.15-0.3,23.5,4.06c1.57,0.93,3.48,1.04,5.09-0.34H406.505z"/>
		<path class="st4" d="M401.325,266.38c1.44,1.45,3.37,0.97,5.17,0.85c-1.61,1.38-3.52,1.27-5.09,0.34
			c-7.35-4.36-15.43-3.99-23.5-4.06c-2.51-0.03-5.38,0.75-7.24-1.92c6.18,1.6,12.51,0.35,18.72,0.92
			C393.575,262.9,397.995,263.01,401.325,266.38z"/>
		<path class="st29" d="M397.385,225.33c3.21,0.01,6.55-1.07,9.63,0.67c-2.93-0.43-5.86-0.92-8.75,0.23
			C397.865,225.97,396.845,225.33,397.385,225.33z"/>
		<path class="st30" d="M391.915,189.94c-0.62-0.03-1.23-0.06-1.84-0.09c0.14-0.25,0.25-0.5,0.33-0.76
			C390.875,189.42,391.385,189.69,391.915,189.94z"/>
		<path class="st30" d="M391.165,181.34c0.15,2.87-0.43,5.81,0.75,8.6c-0.53-0.25-1.04-0.52-1.51-0.85
			C391.225,186.58,389.605,183.75,391.165,181.34z"/>
		<path class="st30" d="M390.075,179.05c1.37,0.62,0.84,1.59,1.09,2.29c-1.56,2.41,0.06,5.24-0.76,7.75c-0.1-0.07-0.2-0.14-0.3-0.22
			c-0.01-0.01-0.02-0.01-0.03-0.02C390.075,185.64,390.075,182.42,390.075,179.05z"/>
		<path class="st30" d="M390.105,188.87c0.1,0.08,0.2,0.15,0.3,0.22c-0.08,0.26-0.19,0.51-0.33,0.76c0-0.33,0-0.67,0-1
			C390.085,188.86,390.095,188.86,390.105,188.87z"/>
		<path class="st31" d="M368.015,231.92c-2.43-0.59-5.86,1.3-6.88-2.77C362.625,232.06,365.985,230.33,368.015,231.92z"/>
		<path class="st31" d="M361.135,229.15c1.02,4.07,4.45,2.18,6.88,2.77c-2,1.74-4.18,0.37-6.24,0.28
			C358.175,232.04,360.335,230.39,361.135,229.15z"/>
		<path class="st28" d="M356.155,189.9c3.03,5.47,1.39,10.38,0.77,15.32c-1.98,15.66-7.72,29.85-16.63,42.76
			c-6.73,9.75-16.98,15.75-25.83,23.21c-4.69,3.96-9.82,7.39-14.06,11.9c-2.43,2.59-5.54,4.21-8.85,5.44
			c-5.9,2.2-11.78,4.4-17.58,6.89c-7.62,3.27-15.65,2.25-22.6-1.82c-7.07-4.14-14.81-6.29-22.2-9.45
			c-8.02-3.43-16.4-5.84-23.15-12.04c-5.26-4.84-8.75-10.84-13.01-16.33c-1.44-1.87-2.24-2.43-4.65-1.24
			c-4.92,2.43-10.24,2.3-15.48,0.66c3.1,0.14,6.33,1.64,9.16-0.91c4.64-0.2,7.97-3.16,11.44-5.64c2.66-1.91,4.12-1.78,4.58,1.62
			c1.87,13.79,11.41,21,23.24,24.95c11.23,3.74,21.42,9.77,32.61,13.4c9.35,3.03,18.13,2.53,28.02-0.83
			c14.13-4.82,23.27-15.49,34.44-23.77c3.99-2.96,8-5.94,11.95-8.98c10.6-8.15,15.51-19.75,19.97-31.88
			c2.69-7.34,4.83-14.68,6.39-22.31C355.375,197.44,355.375,193.98,356.155,189.9z"/>
		<path class="st32" d="M334.345,156c13.03,5.85,19.93,16.15,21.49,30.37c-4.26-12.44-12.52-21.69-22.75-29.37
			C333.575,156.74,334.195,156.67,334.345,156z"/>
		<path d="M338.085,187.44c1.24,2.41,2.09,4.95,1.71,7.67c-3.22,22.78-13.04,41.63-32.64,54.65c-2.57,1.71-4.9,3.77-7.43,5.73
			c-1.51-2.55,0.39-3.66,1.52-4.88c2.84-3.03,5.87-5.9,8.69-8.95c0.88-0.95,2.71-3.06,1.43-3.35c-1.74-0.41-4.27-3.19-6.16,0.2
			c-0.72,1.27-1.6,2.74-2.8,3.39c-1.94,1.03-3.63,5.53-6.5,1.01c-3.04,2.45-6.22-0.03-9.28,0.71c-0.17-1.7,1.76-1.98,1.37-3.38
			c-0.94-0.83-1.87,0.04-2.8,0.01c-0.93-0.03-3.68,3.04-2.24-1.32c0.28-0.88-0.85-0.43-1.36-0.18c-1.34,0.66-2.67,1.34-4.52,2.27
			c1.17-3.46-0.65-6.26-0.98-9.3c-0.59-5.45-5.78-0.22-7.77-3.33c2.79,4.9,5.74,9.55,5.23,15.21c-0.48,5.24-1.67,10.22-6.49,13.58
			c-1.02-1.47-0.23-2.36,0.28-3.08c5.18-7.26,3.38-14.43-0.06-21.68c-0.95-2-2.55-3.07-4.4-3.79c-1.46-0.58-3.18-1.65-4.6-0.09
			c-1.17,1.29-0.68,2.98,0.1,4.22c1.48,2.33,0.27,4.83,1.2,7.25c-2.76-0.02-2.22-1.96-2.5-3.22c-1.01-4.49-2.85-8.47-6.48-11.49
			c-2.02-1.69-4.25-1.89-6.56-1.09c-2.3,0.79-2.42,3-2.63,4.97c-0.76,7.19,3.4,12.51,7.17,17.83c1.51,2.13,3.38,3.91,3.7,6.65
			c-2.79,0.21-5.49,2.4-8.37,0.34c-1.29-0.93-2.11-0.31-2.87,0.79c-1.1,1.59,0.5,2.02,1.2,2.66c8.36,7.56,17.76,12.3,29.46,10.51
			c0.78,0.33,1.55,0.66,2.33,0.99c-8.73,2.73-16.95,2.04-24.78-3.09c-16.94-11.09-25.08-21-14.84-47.64
			c6.88-17.9,19.52-30.9,37.79-38.25c8.14-3.27,16.12-7.2,24.71-8.73C310.925,168.74,329.145,170.01,338.085,187.44z"/>
		<path class="st33" d="M334.345,156c-0.42,0.33-0.84,0.66-1.26,1c-4.62-1.61-7.41-4.66-7.52-9.72
			c-0.33-15.51-9.66-25.72-20.57-35.01c0.46-0.43,0.91-0.86,1.36-1.28c8.22,5.43,14.15,13.01,19.17,21.24
			c2.39,3.93,1.94,9.01,2.77,13.49C329.145,150.31,331.235,153.22,334.345,156z"/>
		<path class="st32" d="M333.085,157c0.42-0.34,0.84-0.67,1.26-1C334.195,156.67,333.575,156.74,333.085,157z"/>
		<path class="st34" d="M314.845,83.49c0.18,0.53,0.36,1.07,0.53,1.6c-7.2,0.98-12.67,5.71-19.34,7.86c0.9-3.42-2.53-3.34-3.95-4.89
			C299.675,86.54,307.265,85.01,314.845,83.49z"/>
		<path class="st35" d="M311.625,149c-2.95,0.74-5.9,1.49-8.86,2.23C305.095,147.92,308.015,146.85,311.625,149z"/>
		<path class="st36" d="M310.215,135.11c-2.56,3.44-4.89,6.93-8.55,8.98c-0.72,0.41-1.7,1.26-2.68,0.25
			c-0.7-0.73-0.74-1.68-0.09-2.24C302.305,139.19,305.545,135.97,310.215,135.11z"/>
		<path class="st37" d="M306.355,110.99c-0.45,0.42-0.9,0.85-1.36,1.28C304.775,111.13,305.205,110.67,306.355,110.99z"/>
		<path class="st37" d="M306.355,110.99c-1.15-0.32-1.58,0.14-1.36,1.28c-1.54-0.79-3.08-1.58-4.17-3c1.07,0.34,1.37-0.16,1.24-1.13
			C303.795,108.64,305.265,109.53,306.355,110.99z"/>
		<path class="st37" d="M302.065,108.14c0.13,0.97-0.17,1.47-1.24,1.13C301.245,108.89,301.655,108.52,302.065,108.14z"/>
		<path d="M302.065,108.14c-0.41,0.38-0.82,0.75-1.24,1.13c-9.54-4.51-19.58-6.55-30.14-6.22c-6.98,0.22-13.98,0.38-20.96,0.22
			c-3.34-0.08-6.6-0.07-9.95-1.98c-2.69-1.55-5.54,1.79-8.01,3.42c-2.89,1.92-5.41,4.41-8.18,6.52c-1.01,0.77-1.85,2.4-3.29,1.87
			c-2.04-0.74,0.92-2.73-0.67-3.8c-1.56,0.66-1.44,2.51-2.45,3.58c-0.68,0.71-1.54,1.87-2.36,0.66c-2.71-4.01-4.09-0.82-5.76,0.9
			c-1.73,1.78-3.69,2.95-5.98,4.08c-3.83,1.88-7.77,3.29-10.74,7.62c-4.52,6.59-11.42,11.52-17,17.45
			c-1.91,2.03-6.14,3.56-2.95,8.08c0.91,1.3-1.87,2.97-3.26,3.89c-4.46,2.97,0.76,4.61,0.97,6.89c0.2,2.19,2.28,0.22,3.39-0.22
			c1.99-0.8,3.87-1.85,6.98-3.38c-2.49,8.14-6.65,14.04-12,21.08c5.03-2.39,9.13-3.16,13.26-4.29c1.27,3.05-0.2,5.75-1,8.55
			c-0.99,3.46-5.04,6.71-0.8,10.64c0.24,0.23-0.71,1.5-0.71,2.28c-0.01,2.36-4.06,5.14,0.64,7.07c0.07,0.02,0.1,0.35,0.03,0.47
			c-2.96,5.32,2.63,10.03,1.07,15.25c-0.6,2.11-0.32,5.71-4.13,2.3c-0.41,2.02,1.74,1.82,2.24,2.95c0.43,2.48-1.85,2.89-3.16,3.89
			c-7.77,5.91-8.33,16.01-1.21,22.8c2.09,2,5.16,0.87,7.35,2.45c-2.9,1.76-6.13,0.36-9.16,0.91c-2.59-1.65-4.02-4.34-5.74-6.71
			c-3.62-4.95-4.63-10.28-1-15.76c1.28-1.94,1.69-3.11-1.06-4.48c-10.9-5.44-19.21-13.86-24.12-24.88c-1.77-3.96-0.82-9.32-0.49-14
			c0.27-3.81,1.04-7.36-3.62-9.08c-1.76-0.65-1.04-2.21-0.93-3.45c0.27-3.23,1.82-6.02,3.31-8.79c1.9-3.52,3.69-7.06,4.44-11.03
			c0.21-1.12,1.36-2.77-1.27-2.57c-0.3,0.03-0.65-0.49-0.97-0.76c2.93-3.27-0.31-7.97,2.7-11.31c2.57-2.85,3.7-7.42,5.74-9.58
			c4.49-4.76,6.24-12.05,13.26-14.61c7.9-2.87,14.29-8.41,20.79-13.48c7.88-6.14,16.89-10.19,25.49-14.95
			c8.56-4.73,16.83-9.65,23.57-16.84c0.68-0.72,1.38-1.44,2.16-2.06c0.82-0.65,1.84-1,2.68-0.1c0.76,0.83-0.04,1.5-0.53,2.13
			c-0.91,1.18-1.83,2.35-2.75,3.53c3.91,1.86,3.85,1.78,8.92-1.84c2.69-1.92,5.06-4.51,9.16-5.38c-3.3,4.69-5.76,9.1-10.17,11.88
			c-0.9,0.57-2.26,1.42-1.8,2.66c0.6,1.58,2.22,1.05,3.51,0.88c4.44-0.56,7.99-3.02,11.46-5.56c1.61-1.18,2.97-2.67,4.55-3.89
			c4.64-3.56,9.04-8,15.89-4.56c-0.65,2.98-4,4.78-5.13,8.38c3-0.39,5.53-0.73,8.07-1.06c0.02,0.37,0.05,0.74,0.07,1.11
			c-0.37,0.76-1.99,0.99-1.03,2.29c0.24,0.33,0.87,0.71,1.16,0.61c1.24-0.41,1.79-1.36,1.57-2.68c0.78-0.39,1.55-0.77,2.33-1.15
			c1.05,0.31,2.1,0.63,3.15,0.94c3.02,0.6,5.51-2.09,8.68-1.43c-0.82,2.9-3.12,4.63-4.77,6.82c-1.91,2.53-0.53,3.37,1.92,3.62
			c0.13,2.58,3.59,2.48,3.95,4.89c-4.64,3.5-4.79,5.63-1.11,10.18C296.865,105.53,299.875,106.21,302.065,108.14z M258.035,93.99
			c0.46-0.09,0.82-0.4,0.54-0.98c-0.31-0.64-0.07-1.64-1.18-1.72c-0.75,0.13-1.16,0.74-0.96,1.32
			C256.665,93.26,257.005,94.18,258.035,93.99z M252.465,100.7c1.18,0.67,2.38,0.93,3.53-0.66c-1.22-0.17-2.11-1.22-3.33-0.55
			C252.425,99.62,252.325,100.62,252.465,100.7z M205.705,104.43c-0.69-0.35-1.19-0.8-1.45-0.69c-0.55,0.24-1.26,0.69-1.39,1.19
			c-0.22,0.88,0.44,1.11,1.18,0.71C204.555,105.36,204.995,104.96,205.705,104.43z"/>
		<path class="st34" d="M292.085,88.06c1.42,1.55,4.85,1.47,3.95,4.89C295.675,90.54,292.215,90.64,292.085,88.06z"/>
		<path class="st38" d="M293.065,141.25c7.76,2.5,1.67,7.75,2.41,11.65c-3.27-2.87,1.72-7.69-2.54-10.32
			C293.435,142.18,293.475,141.74,293.065,141.25z"/>
		<path class="st38" d="M293.065,141.25c0.41,0.49,0.37,0.93-0.13,1.33C292.985,142.13,293.025,141.69,293.065,141.25z"/>
		<path class="st34" d="M293.065,141.25c-0.04,0.44-0.08,0.88-0.13,1.33c-5.34,1.27-8.62,5.83-13.21,8.45
			C280.475,145.71,288.065,140.21,293.065,141.25z"/>
		<path class="st39" d="M291.185,73.51c-0.88,2.91-3.81,3.43-4.93,5.54c-0.67-1.14-1.64-1.77-3-1.7c-0.06,0.01-0.12,0.01-0.17,0.03
			c-0.01-0.46-0.03-0.91-0.04-1.37C285.345,74.25,288.035,73.82,291.185,73.51z"/>
		<path class="st40" d="M287.785,261.06c0.25,0.52,0.49,1.03,0.74,1.55c-4.43,2.88-9.15,5.19-14.49,6.34
			c-0.1-1.92-1.35-1.12-2.33-0.99C277.065,265.66,282.425,263.36,287.785,261.06z"/>
		<path class="st39" d="M286.255,79.05c-1.05-0.31-2.1-0.63-3.15-0.94c-0.01-0.24-0.01-0.49-0.02-0.73
			c0.05-0.02,0.11-0.02,0.17-0.03C284.615,77.28,285.585,77.91,286.255,79.05z"/>
		<path class="st41" d="M283.085,77.38c0.01,0.24,0.01,0.49,0.02,0.73c-0.21-0.21-0.34-0.43-0.41-0.65
			C282.825,77.42,282.945,77.39,283.085,77.38z"/>
		<path class="st41" d="M283.105,78.11c-0.78,0.38-1.55,0.76-2.33,1.15c-0.14-0.02-0.29-0.04-0.44-0.06
			c0.18-0.21,0.34-0.47,0.54-0.67c0.53-0.52,1.13-0.89,1.82-1.07C282.765,77.68,282.895,77.9,283.105,78.11z"/>
		<path class="st41" d="M283.045,76.01c0.01,0.46,0.03,0.91,0.04,1.37c-0.14,0.01-0.26,0.04-0.39,0.08
			C282.525,76.99,282.665,76.5,283.045,76.01z"/>
		<path class="st41" d="M279.005,77.93c1.14-1.07,2.37-1.96,4.04-1.92c-0.38,0.49-0.52,0.98-0.35,1.45
			c-0.69,0.18-1.29,0.55-1.82,1.07c-0.2,0.2-0.36,0.46-0.54,0.67c-0.27-0.04-0.54-0.07-0.81-0.1c-0.01-0.08-0.02-0.16-0.01-0.24
			C279.475,78.49,279.295,78.18,279.005,77.93z"/>
		<path class="st41" d="M279.515,78.86c-0.01,0.08,0,0.16,0.01,0.24c-0.15-0.02-0.3-0.04-0.45-0.06c-0.02-0.37-0.05-0.74-0.07-1.11
			C279.295,78.18,279.475,78.49,279.515,78.86z"/>
		<path class="st40" d="M274.035,268.95c-0.78-0.33-1.55-0.66-2.33-0.99C272.685,267.83,273.935,267.03,274.035,268.95z"/>
		<path class="st42" d="M255.175,147.96c-2.15,2.36-4.79,3.23-7.77,3.31c-0.82-0.03-1.64-0.05-2.46-0.08
			c-0.97,0.01-1.94,0.02-2.91,0.03c-4.52-1.21-9.42-0.95-13.61-3.64C237.345,146.75,246.175,149.42,255.175,147.96z"/>
		<path class="st43" d="M250.025,154.8c-5.88-0.78-11.11,1.69-16.63,3.28c1.81-2.93,5.13-3.4,7.65-5.07
			c1.05-0.15,2.12-0.24,2.96-0.8c0.36,0.05,0.74,0.06,1.12,0.04c0.86-0.09,1.64-0.38,2.28-0.98
			C247.025,153.34,250.005,152.54,250.025,154.8z"/>
		<path class="st43" d="M244.945,151.19c0.82,0.03,1.64,0.05,2.46,0.08c-0.64,0.6-1.42,0.89-2.28,0.98
			c-0.38,0.02-0.76,0.01-1.12-0.04C244.365,151.97,244.685,151.64,244.945,151.19z"/>
		<path class="st44" d="M229.285,204.17c-2.4,4-4.8,7.99-7.2,11.99c0.68-1.21,0.69-2.07-1.05-2.05
			C222.935,210.2,224.655,206.16,229.285,204.17z"/>
		<path class="st44" d="M221.035,214.11c1.74-0.02,1.73,0.84,1.05,2.05C221.985,215.35,221.895,214.54,221.035,214.11z"/>
		<path class="st45" d="M221.035,214.11c0.86,0.43,0.95,1.24,1.05,2.05c-2.24,5.51-4.33,11.07-4.8,17.08
			c-0.09,1.18-0.09,2.78-1.53,2.63c-2.05-0.21-1.06-2.02-0.95-3.18C215.415,226.01,217.345,219.76,221.035,214.11z"/>
		<path class="st33" d="M184.805,234.53c1.68,1.43-0.13,2.63-0.67,3.87c-0.53,1.21-1.5,2.31-1.7,3.55c-0.35,2.21-1.44,3.7-3.5,2.74
			c-1.89-0.86-0.4-2.57,0.19-3.86c0.31-0.69,0.68-1.37,1.04-2.07c-1.87-1.08-3.24,1.41-5.11,0.03c1.19-2.31,3.47-3.27,5.53-4.44
			C181.975,233.56,183.625,233.52,184.805,234.53z"/>
		<path class="st28" d="M172.885,255.2c3.03-0.55,6.26,0.85,9.16-0.91C179.215,256.84,175.985,255.34,172.885,255.2z"/>
		<path class="st28" d="M135.325,102.91c4.41,1.63,8.54,3.62,11.47,7.68c-2.86,3.28-5.45,3.76-9.42,0.94
			c-7.69-5.45-15.79-10.36-24.38-14.37c-2.06-1.75-4.46-2.88-6.96-3.84c-1.46-0.84-2.8-2.01-4.47-2.23c-0.33-0.2-0.65-0.4-0.97-0.62
			c-0.71-0.49-1.42-0.97-2.18-1.38c-0.43-0.2-0.85-0.41-1.26-0.64c-0.62-0.75-1.5-1.14-2.42-1.47c-0.57-0.41-1.12-0.85-1.64-1.33
			c-2.25-0.7-4.23-1.99-6.37-2.93c-0.29,0-0.56-0.04-0.82-0.1c-0.77-0.62-1.57-1.16-2.53-1.29c-0.37-0.28-0.73-0.55-1.1-0.81
			c-1.68-1-3.22-2.25-5.11-2.86c-0.24-0.03-0.48-0.07-0.72-0.12c-1.05-1.41-2.85-1.7-4.36-2.41c-2.22-1.42-4.41-2.87-6.65-4.26
			c-6.21-3.84-6.21-3.83-6.28-11.89c12.61,7.48,25.58,13.64,38.41,20.09c6.96,3.5,13.78,7.28,20.58,11.1c3.56,2,7.11,3.97,9.24,7.93
			C128.925,100.98,132.365,101.83,135.325,102.91z"/>
		<path class="st1" d="M131.005,111.89c1.08,0.93,3.67,2.02,2.19,3.7c-1.41,1.63-3.51,3.8-6.44,1.8
			c-23.69-16.19-50.2-27.42-74.71-42.2c-4.58-2.77-6.95-5.84-5.71-11.64c8.33,4.14,16.02,9.32,24.61,12.7
			c1.77,1.3,3.45,2.87,5.95,2.07c1.92,0.72,3.07,2.76,5.23,3.05c1.16,1.24,2.19,2.83,4.29,1.69c1.75,1.88,3.65,3.44,6.45,3.23
			c0.69,2.55,3.15,2.72,5,3.71c0.9,0,1.58,0.4,2.04,1.17c1.74,1,3.47,2.01,5.21,3.01c1.99,1.26,3.99,2.52,5.98,3.78
			c3.16,5.78,8.46,8.54,14.43,10.56C127.515,109.2,129.405,110.49,131.005,111.89z"/>
		<path d="M129.675,203.68c0.31,0.55,0.51,1.17,0.96,2.19c-3.65,0.69-6.88,1.29-10.18-0.57c-1.88-1.07-4.02-1.6-6.25-1.02h-0.01
			c-1.43-1.54-3.32-1.83-5.3-2.21c-10.34-1.97-20.9-1.16-31.29-2.6c-13.85-1.92-27.27-5.82-40.96-8.47
			c-2.45-0.47-4.37-1.64-4.41-4.54c3.55-4.54,7.33-6.15,13.57-4.27c21.2,6.38,43.2,8.82,65.06,11.95
			C118.085,195.18,125.475,196.44,129.675,203.68z"/>
		<path class="st46" d="M128.685,239.86c-3.99,2.9-8.44,3.35-12.73,4.27c-4.46-0.05-8.93-0.36-13.37-0.09
			c-3.88,0.23-7.99,0.4-10.68,4.02c-1.55,0.3-3,1.29-4.67,0.58h-0.01c-5.4-4.22-5.54-5.23-1.18-8.58
			C100.095,233.37,114.165,231.9,128.685,239.86z"/>
		<path class="st1" d="M114.195,204.28c0.93,2.01,4.07,3.71,2.75,5.79c-1.1,1.74-4.49,1.6-6.49,0.71
			c-6.89-3.08-14.25-4.04-21.5-5.56c-1.19-1.95-2.51-1.24-3.84-0.18c-17.6,0.57-34.51-3.49-51.44-7.49
			c-3.55-0.83-7.16-1.43-10.66-2.4c-4.01-1.12-4.55-4.08-1.5-6.94c3.2-3.01,6.71-3.86,10.72-1.75c-1.36,4.57,2.16,5.18,5.08,6.04
			C62.405,199.94,88.365,201.66,114.195,204.28z"/>
		<path class="st1" d="M108.895,202.07c1.98,0.38,3.87,0.67,5.3,2.21c-25.83-2.62-51.79-4.34-76.88-11.78
			c-2.92-0.86-6.44-1.47-5.08-6.04c0.04,2.9,1.96,4.07,4.41,4.54c13.69,2.65,27.11,6.55,40.96,8.47
			C87.995,200.91,98.555,200.1,108.895,202.07z"/>
		<path class="st47" d="M115.955,244.13c-4.57,1.61-9.34,1.29-14.07,1.55c-3.43,0.18-6.86,0.73-9.98,2.38
			c2.69-3.62,6.8-3.79,10.68-4.02C107.025,243.77,111.495,244.08,115.955,244.13z"/>
		<path class="st47" d="M101.885,245.68c4.73-0.26,9.5,0.06,14.07-1.55c-7.38,5.2-15.78,4.16-24.05,3.93
			C95.025,246.41,98.455,245.86,101.885,245.68z"/>
		<path class="st28" d="M101.565,91.09c-0.52-0.08-1.07-0.06-1.66,0.08c-0.46-0.77-1.14-1.17-2.04-1.17
			c-0.14-0.65-0.39-1.15-0.71-1.55c0.41,0.23,0.83,0.44,1.26,0.64c0.76,0.41,1.47,0.89,2.18,1.38
			C100.915,90.69,101.235,90.89,101.565,91.09z"/>
		<path class="st28" d="M93.095,85.65c0.52,0.48,1.07,0.92,1.64,1.33c-0.63-0.23-1.27-0.43-1.87-0.69c-2.8,0.21-4.7-1.35-6.45-3.23
			c-0.17-0.15-0.34-0.29-0.51-0.44c0.26,0.06,0.53,0.1,0.82,0.1C88.865,83.66,90.845,84.95,93.095,85.65z"/>
		<path class="st48" d="M88.955,205.22c-1.28-0.06-2.56-0.12-3.84-0.18C86.415,204.59,87.725,204.09,88.955,205.22z"/>
		<path class="st48" d="M85.115,205.04c1.33-1.06,2.65-1.77,3.84,0.18C87.725,204.09,86.415,204.59,85.115,205.04z"/>
		<path class="st13" d="M87.225,248.64c-2.57-0.63-4.53-1.96-4.87-4.78c-0.33-2.68,2.16-2.82,3.69-3.8
			C81.685,243.41,81.825,244.42,87.225,248.64z"/>
		<path class="st13" d="M82.355,243.86c0.34,2.82,2.3,4.15,4.87,4.78c-2.91,0.58-5.61,1.23-8.12,3.23
			c-3.23,2.58-7.92,0.52-9.15-3.39c-0.5-1.56,0.33-2.18,1.34-2.77c4.61-2.69,9.23-5.34,14.75-5.65
			C84.515,241.04,82.025,241.18,82.355,243.86z"/>
		<path class="st28" d="M83.375,81.33c-0.38-0.07-0.8-0.06-1.25,0.04c-2.16-0.29-3.31-2.33-5.23-3.05
			c-0.13-0.29-0.28-0.55-0.45-0.78c0.24,0.05,0.48,0.09,0.72,0.12c1.89,0.61,3.43,1.86,5.11,2.86
			C82.645,80.78,83.005,81.05,83.375,81.33z"/>
	</g>
</g>
</svg>
